<svg preserveAspectRatio="none" width="100%" height="100%" overflow="visible" style="display: block;" viewBox="0 0 8.99992 8.99992" fill="none" xmlns="http://www.w3.org/2000/svg">
<g id="Vector">
<path d="M8.14645 0.146447C8.34171 -0.0488155 8.65822 -0.0488155 8.85348 0.146447C9.04874 0.341709 9.04874 0.658216 8.85348 0.853478L0.853478 8.85348C0.658216 9.04874 0.341709 9.04874 0.146447 8.85348C-0.0488155 8.65822 -0.0488155 8.34171 0.146447 8.14645L8.14645 0.146447Z" fill="var(--fill-0, #1C1917)"/>
<path d="M0.146447 0.146447C0.341709 -0.0488155 0.658216 -0.0488155 0.853478 0.146447L8.85348 8.14645C9.04874 8.34171 9.04874 8.65822 8.85348 8.85348C8.65822 9.04874 8.34171 9.04874 8.14645 8.85348L0.146447 0.853478C-0.0488155 0.658216 -0.0488155 0.341709 0.146447 0.146447Z" fill="var(--fill-0, #1C1917)"/>
</g>
</svg>
