<svg preserveAspectRatio="none" width="100%" height="100%" overflow="visible" style="display: block;" viewBox="0 0 11.6667 14.3333" fill="none" xmlns="http://www.w3.org/2000/svg">
<g id="Vector">
<path d="M0 12.5V1.83333C0 1.3471 0.193293 0.880926 0.537109 0.537109C0.880926 0.193293 1.3471 0 1.83333 0H7.83333C7.96594 0 8.09308 0.0527162 8.18685 0.146484L11.5202 3.47982C11.614 3.57359 11.6667 3.70073 11.6667 3.83333V12.5C11.6667 12.9862 11.4734 13.4524 11.1296 13.7962C10.7857 14.14 10.3196 14.3333 9.83333 14.3333H1.83333C1.3471 14.3333 0.880926 14.14 0.537109 13.7962C0.193293 13.4524 0 12.9862 0 12.5ZM1 12.5C1 12.721 1.08786 12.9329 1.24414 13.0892C1.40042 13.2455 1.61232 13.3333 1.83333 13.3333H9.83333C10.0543 13.3333 10.2662 13.2455 10.4225 13.0892C10.5788 12.9329 10.6667 12.721 10.6667 12.5V4.04036L7.6263 1H1.83333C1.61232 1 1.40042 1.08786 1.24414 1.24414C1.08786 1.40042 1 1.61232 1 1.83333V12.5Z" fill="var(--fill-0, #DEDBD9)"/>
<path d="M6.66667 3.16667V0.5C6.66667 0.223858 6.89052 0 7.16667 0C7.44281 0 7.66667 0.223858 7.66667 0.5V3.16667C7.66667 3.38768 7.75453 3.59958 7.91081 3.75586C8.06709 3.91214 8.27899 4 8.5 4H11.1667C11.4428 4 11.6667 4.22386 11.6667 4.5C11.6667 4.77614 11.4428 5 11.1667 5H8.5C8.01377 5 7.54759 4.80671 7.20378 4.46289C6.85996 4.11907 6.66667 3.6529 6.66667 3.16667Z" fill="var(--fill-0, #DEDBD9)"/>
</g>
</svg>
