<svg preserveAspectRatio="none" width="100%" height="100%" overflow="visible" style="display: block;" viewBox="0 0 16 16" fill="none" xmlns="http://www.w3.org/2000/svg">
<g id="Icon / loader">
<g id="Vector">
<path d="M7.5 4V1.33333C7.5 1.05719 7.72386 0.833333 8 0.833333C8.27614 0.833333 8.5 1.05719 8.5 1.33333V4C8.5 4.27614 8.27614 4.5 8 4.5C7.72386 4.5 7.5 4.27614 7.5 4Z" fill="var(--fill-0, #22C563)"/>
<path d="M12.3802 2.91341C12.5755 2.71828 12.892 2.71819 13.0872 2.91341C13.2823 3.10864 13.2823 3.42521 13.0872 3.62044L11.1536 5.55404C10.9584 5.74912 10.6418 5.74912 10.4466 5.55404C10.2514 5.35882 10.2515 5.04228 10.4466 4.847L12.3802 2.91341Z" fill="var(--fill-0, #22C563)"/>
<path d="M14.6667 7.5C14.9428 7.5 15.1667 7.72386 15.1667 8C15.1667 8.27614 14.9428 8.5 14.6667 8.5H12C11.7239 8.5 11.5 8.27614 11.5 8C11.5 7.72386 11.7239 7.5 12 7.5H14.6667Z" fill="var(--fill-0, #22C563)"/>
<path d="M10.4465 10.4465C10.6417 10.2512 10.9583 10.2512 11.1535 10.4465L13.0871 12.3801L13.121 12.4178C13.2812 12.6142 13.2702 12.904 13.0871 13.0871C12.904 13.2702 12.6142 13.2812 12.4178 13.121L12.3801 13.0871L10.4465 11.1535C10.2512 10.9583 10.2512 10.6417 10.4465 10.4465Z" fill="var(--fill-0, #22C563)"/>
<path d="M7.5 14.6667V12C7.5 11.7239 7.72386 11.5 8 11.5C8.27614 11.5 8.5 11.7239 8.5 12V14.6667C8.5 14.9428 8.27614 15.1667 8 15.1667C7.72386 15.1667 7.5 14.9428 7.5 14.6667Z" fill="var(--fill-0, #22C563)"/>
<path d="M4.847 10.4466C5.04228 10.2515 5.35882 10.2514 5.55404 10.4466C5.74912 10.6418 5.74912 10.9584 5.55404 11.1536L3.62044 13.0872C3.42521 13.2823 3.10864 13.2823 2.91341 13.0872C2.71819 12.892 2.71828 12.5755 2.91341 12.3802L4.847 10.4466Z" fill="var(--fill-0, #22C563)"/>
<path d="M4 7.5C4.27614 7.5 4.5 7.72386 4.5 8C4.5 8.27614 4.27614 8.5 4 8.5H1.33333C1.05719 8.5 0.833333 8.27614 0.833333 8C0.833333 7.72386 1.05719 7.5 1.33333 7.5H4Z" fill="var(--fill-0, #22C563)"/>
<path d="M2.91341 2.91341C3.10867 2.71815 3.42518 2.71815 3.62044 2.91341L5.55404 4.847L5.58789 4.88477C5.74813 5.08115 5.73712 5.37096 5.55404 5.55404C5.37096 5.73712 5.08115 5.74813 4.88477 5.58789L4.847 5.55404L2.91341 3.62044C2.71815 3.42518 2.71815 3.10867 2.91341 2.91341Z" fill="var(--fill-0, #22C563)"/>
</g>
</g>
</svg>
