<svg preserveAspectRatio="none" width="100%" height="100%" overflow="visible" style="display: block;" viewBox="0 0 14.3336 11.6667" fill="none" xmlns="http://www.w3.org/2000/svg">
<g id="Vector">
<path d="M13.5645 2.07813C13.7973 1.92979 14.1068 1.9983 14.2552 2.23112C14.4035 2.46399 14.335 2.77349 14.1022 2.92188L8.10807 6.73958C8.10231 6.74325 8.0964 6.74722 8.0905 6.75065C7.81091 6.91302 7.49323 6.998 7.16992 6.99805C6.84649 6.99805 6.52838 6.9131 6.2487 6.75065C6.24287 6.74727 6.23746 6.7432 6.23177 6.73958L0.231771 2.92188C-0.00114987 2.77366 -0.0699913 2.46473 0.078125 2.23177C0.22634 1.99885 0.535274 1.93001 0.768229 2.07813L6.75065 5.88542C6.87778 5.95925 7.02291 5.99805 7.16992 5.99805C7.3168 5.998 7.46087 5.95916 7.58789 5.88542L13.5645 2.07813Z" fill="var(--fill-0, #1C1917)"/>
<path d="M13.3333 1.83333C13.3333 1.3731 12.9602 1 12.5 1H1.83333C1.3731 1 1 1.3731 1 1.83333V9.83333C1 10.2936 1.3731 10.6667 1.83333 10.6667H12.5C12.9602 10.6667 13.3333 10.2936 13.3333 9.83333V1.83333ZM14.3333 9.83333C14.3333 10.8459 13.5125 11.6667 12.5 11.6667H1.83333C0.820811 11.6667 0 10.8459 0 9.83333V1.83333C0 0.820811 0.820811 0 1.83333 0H12.5C13.5125 0 14.3333 0.820811 14.3333 1.83333V9.83333Z" fill="var(--fill-0, #1C1917)"/>
</g>
</svg>
