<svg preserveAspectRatio="none" width="100%" height="100%" overflow="visible" style="display: block;" viewBox="0 0 13.6719 13.6719" fill="none" xmlns="http://www.w3.org/2000/svg">
<path id="Vector" d="M3.34422 1.2469C4.59628 0.334659 6.13311 -0.100801 7.67756 0.0196864C9.22196 0.140235 10.6727 0.808425 11.7681 1.9038C12.8634 2.99918 13.5316 4.4499 13.6522 5.9943C13.7727 7.5388 13.3373 9.0762 12.425 10.3283C11.5127 11.5802 10.1832 12.4652 8.67626 12.8237C7.23915 13.1656 5.73105 13.0062 4.39891 12.3778L0.660631 13.6453C0.480404 13.7064 0.280871 13.6601 0.146308 13.5255C0.011757 13.391 -0.0345754 13.1914 0.0265163 13.0112L1.29344 9.27229C0.665282 7.94035 0.506301 6.43241 0.848131 4.9956C1.20671 3.48851 2.09218 2.15919 3.34422 1.2469ZM7.59943 1.01708C6.29257 0.91514 4.9922 1.28292 3.93277 2.05484C2.87331 2.8268 2.12418 3.9521 1.82079 5.22737C1.51747 6.50255 1.67956 7.8443 2.27782 9.01057C2.33956 9.13094 2.34989 9.27112 2.30646 9.39924L1.298 12.3732L4.27261 11.3654L4.32144 11.3517C4.43571 11.3255 4.55601 11.34 4.66128 11.394C5.82756 11.9923 7.16929 12.1544 8.44448 11.8511C9.71975 11.5477 10.8451 10.7985 11.617 9.73909C12.3889 8.67964 12.7567 7.37929 12.6548 6.07242C12.5528 4.76553 11.9879 3.53775 11.061 2.61083C10.1341 1.68392 8.90631 1.11904 7.59943 1.01708Z" fill="var(--fill-0, #A8A29E)"/>
</svg>
