<svg preserveAspectRatio="none" width="100%" height="100%" overflow="visible" style="display: block;" viewBox="0 0 14.3333 14.3333" fill="none" xmlns="http://www.w3.org/2000/svg">
<path id="Vector" d="M4.66667 1.83333C4.66667 1.61232 4.57881 1.40042 4.42253 1.24414C4.26625 1.08786 4.05435 1 3.83333 1H1.83333C1.61232 1 1.40042 1.08786 1.24414 1.24414C1.08786 1.40042 1 1.61232 1 1.83333C1 4.88332 2.21182 7.80817 4.36849 9.96484C6.52516 12.1215 9.45001 13.3333 12.5 13.3333C12.721 13.3333 12.9329 13.2455 13.0892 13.0892C13.2455 12.9329 13.3333 12.721 13.3333 12.5V10.5C13.3333 10.279 13.2455 10.0671 13.0892 9.91081C12.9329 9.75453 12.721 9.66667 12.5 9.66667H10.5C10.3707 9.66667 10.2432 9.69679 10.1276 9.75456C10.0119 9.81241 9.91095 9.8965 9.83333 10L9.83073 10.0033L9.5944 10.3132C9.43384 10.5239 9.20629 10.674 8.94922 10.7383C8.69198 10.8025 8.41999 10.7773 8.17904 10.6667C8.17525 10.6649 8.17171 10.6626 8.16797 10.6608C6.21715 9.70337 4.63833 8.12666 3.67839 6.17708L3.67708 6.17513C3.55904 5.93297 3.52846 5.65734 3.59049 5.39518C3.65259 5.13298 3.80343 4.89987 4.01758 4.73633L4.02148 4.73372L4.33333 4.5C4.43683 4.42238 4.52092 4.32144 4.57878 4.20573C4.63655 4.09009 4.66667 3.96261 4.66667 3.83333V1.83333ZM5.66667 3.83333C5.66667 4.11785 5.60051 4.3985 5.47331 4.65299C5.34604 4.90752 5.16124 5.12937 4.93359 5.30013L4.62435 5.5306L4.625 5.53125C4.5944 5.55461 4.57267 5.58819 4.5638 5.62565C4.55513 5.66243 4.55937 5.7009 4.57552 5.73503L4.74349 6.05924C5.61467 7.65837 6.96056 8.95177 8.59961 9.75846C8.63328 9.77319 8.67066 9.77646 8.70638 9.76758C8.74313 9.7584 8.77588 9.73717 8.79883 9.70703L8.79948 9.70638L9.03581 9.39648C9.20622 9.17037 9.42705 8.98667 9.68034 8.86003C9.93484 8.73283 10.2155 8.66667 10.5 8.66667H12.5C12.9862 8.66667 13.4524 8.85996 13.7962 9.20378C14.14 9.54759 14.3333 10.0138 14.3333 10.5V12.5C14.3333 12.9862 14.14 13.4524 13.7962 13.7962C13.4524 14.14 12.9862 14.3333 12.5 14.3333C9.18479 14.3333 6.00566 13.0161 3.66146 10.6719C1.31725 8.32767 0 5.14854 0 1.83333C0 1.3471 0.193293 0.880926 0.537109 0.537109C0.880926 0.193293 1.3471 0 1.83333 0H3.83333C4.31956 0 4.78574 0.193293 5.12956 0.537109C5.47337 0.880926 5.66667 1.3471 5.66667 1.83333V3.83333Z" fill="var(--fill-0, #1C1917)"/>
</svg>
