<svg preserveAspectRatio="none" width="100%" height="100%" overflow="visible" style="display: block;" viewBox="0 0 14.3333 13.6667" fill="none" xmlns="http://www.w3.org/2000/svg">
<g id="Vector">
<path d="M6 1.83333V0.5C6 0.223858 6.22386 0 6.5 0C6.77614 0 7 0.223858 7 0.5V1.83333C7 2.10948 6.77614 2.33333 6.5 2.33333C6.22386 2.33333 6 2.10948 6 1.83333Z" fill="var(--fill-0, #A8A29E)"/>
<path d="M2 1.83333V0.5C2 0.223858 2.22386 0 2.5 0C2.77614 0 3 0.223858 3 0.5V1.83333C3 2.10948 2.77614 2.33333 2.5 2.33333C2.22386 2.33333 2 2.10948 2 1.83333Z" fill="var(--fill-0, #A8A29E)"/>
<path d="M0 5.16667V2.5C0 2.01377 0.193293 1.54759 0.537109 1.20378C0.880926 0.859959 1.3471 0.666667 1.83333 0.666667H2.5C2.77614 0.666667 3 0.890524 3 1.16667C3 1.44281 2.77614 1.66667 2.5 1.66667H1.83333C1.61232 1.66667 1.40042 1.75453 1.24414 1.91081C1.08786 2.06709 1 2.27899 1 2.5V5.16667C1 6.09492 1.36901 6.9849 2.02539 7.64128C2.68177 8.29765 3.57174 8.66667 4.5 8.66667C5.42826 8.66667 6.31823 8.29765 6.97461 7.64128C7.63099 6.9849 8 6.09492 8 5.16667V2.5C8 2.27899 7.91214 2.06709 7.75586 1.91081C7.59958 1.75453 7.38768 1.66667 7.16667 1.66667H6.5C6.22386 1.66667 6 1.44281 6 1.16667C6 0.890524 6.22386 0.666667 6.5 0.666667H7.16667C7.6529 0.666667 8.11907 0.859959 8.46289 1.20378C8.80671 1.54759 9 2.01377 9 2.5V5.16667C9 6.36014 8.52621 7.50505 7.68229 8.34896C6.83838 9.19287 5.69347 9.66667 4.5 9.66667C3.30653 9.66667 2.16162 9.19287 1.31771 8.34896C0.473795 7.50505 0 6.36014 0 5.16667Z" fill="var(--fill-0, #A8A29E)"/>
<path d="M4 9.16667C4 8.89052 4.22386 8.66667 4.5 8.66667C4.77614 8.66667 5 8.89052 5 9.16667C5 10.0949 5.36901 10.9849 6.02539 11.6413C6.68177 12.2977 7.57174 12.6667 8.5 12.6667C9.42826 12.6667 10.3182 12.2977 10.9746 11.6413C11.631 10.9849 12 10.0949 12 9.16667V7.16667C12 6.89052 12.2239 6.66667 12.5 6.66667C12.7761 6.66667 13 6.89052 13 7.16667V9.16667C13 10.3601 12.5262 11.505 11.6823 12.349C10.8384 13.1929 9.69347 13.6667 8.5 13.6667C7.30653 13.6667 6.16162 13.1929 5.31771 12.349C4.47379 11.505 4 10.3601 4 9.16667Z" fill="var(--fill-0, #A8A29E)"/>
<path d="M13.3333 5.83333C13.3333 5.3731 12.9602 5 12.5 5C12.0398 5 11.6667 5.3731 11.6667 5.83333C11.6667 6.29357 12.0398 6.66667 12.5 6.66667C12.9602 6.66667 13.3333 6.29357 13.3333 5.83333ZM14.3333 5.83333C14.3333 6.84586 13.5125 7.66667 12.5 7.66667C11.4875 7.66667 10.6667 6.84586 10.6667 5.83333C10.6667 4.82081 11.4875 4 12.5 4C13.5125 4 14.3333 4.82081 14.3333 5.83333Z" fill="var(--fill-0, #A8A29E)"/>
</g>
</svg>
