<svg preserveAspectRatio="none" width="100%" height="100%" overflow="visible" style="display: block;" viewBox="0 0 13 14.3333" fill="none" xmlns="http://www.w3.org/2000/svg">
<g id="Vector">
<path d="M12.5 2.66667C12.7761 2.66667 13 2.89052 13 3.16667C13 3.44281 12.7761 3.66667 12.5 3.66667H0.5C0.223858 3.66667 0 3.44281 0 3.16667C0 2.89052 0.223858 2.66667 0.5 2.66667H12.5Z" fill="var(--fill-0, #DC2626)"/>
<path d="M1.33333 12.5V3.16667C1.33333 2.89052 1.55719 2.66667 1.83333 2.66667C2.10948 2.66667 2.33333 2.89052 2.33333 3.16667V12.5C2.33333 12.6707 2.42369 12.8833 2.60352 13.0632C2.78334 13.243 2.99595 13.3333 3.16667 13.3333H9.83333C10.0041 13.3333 10.2167 13.243 10.3965 13.0632C10.5763 12.8833 10.6667 12.6707 10.6667 12.5V3.16667C10.6667 2.89052 10.8905 2.66667 11.1667 2.66667C11.4428 2.66667 11.6667 2.89052 11.6667 3.16667V12.5C11.6667 12.9959 11.4237 13.45 11.1035 13.7702C10.7833 14.0904 10.3293 14.3333 9.83333 14.3333H3.16667C2.67072 14.3333 2.21666 14.0904 1.89648 13.7702C1.57631 13.45 1.33333 12.9959 1.33333 12.5Z" fill="var(--fill-0, #DC2626)"/>
<path d="M8.66667 3.16667V1.83333C8.66667 1.66262 8.57631 1.45001 8.39648 1.27018C8.21666 1.09036 8.00405 1 7.83333 1H5.16667C4.99595 1 4.78334 1.09036 4.60352 1.27018C4.42369 1.45001 4.33333 1.66262 4.33333 1.83333V3.16667C4.33333 3.44281 4.10948 3.66667 3.83333 3.66667C3.55719 3.66667 3.33333 3.44281 3.33333 3.16667V1.83333C3.33333 1.33738 3.57631 0.883324 3.89648 0.563151C4.21666 0.242978 4.67072 0 5.16667 0H7.83333C8.32928 0 8.78334 0.242978 9.10352 0.563151C9.42369 0.883324 9.66667 1.33738 9.66667 1.83333V3.16667C9.66667 3.44281 9.44281 3.66667 9.16667 3.66667C8.89052 3.66667 8.66667 3.44281 8.66667 3.16667Z" fill="var(--fill-0, #DC2626)"/>
<path d="M4.66667 10.5V6.5C4.66667 6.22386 4.89052 6 5.16667 6C5.44281 6 5.66667 6.22386 5.66667 6.5V10.5C5.66667 10.7761 5.44281 11 5.16667 11C4.89052 11 4.66667 10.7761 4.66667 10.5Z" fill="var(--fill-0, #DC2626)"/>
<path d="M7.33333 10.5V6.5C7.33333 6.22386 7.55719 6 7.83333 6C8.10948 6 8.33333 6.22386 8.33333 6.5V10.5C8.33333 10.7761 8.10948 11 7.83333 11C7.55719 11 7.33333 10.7761 7.33333 10.5Z" fill="var(--fill-0, #DC2626)"/>
</g>
</svg>
