<svg preserveAspectRatio="none" width="100%" height="100%" overflow="visible" style="display: block;" viewBox="0 0 10.3333 13" fill="none" xmlns="http://www.w3.org/2000/svg">
<g id="Vector">
<path d="M9.33333 12.5V11.1667C9.33333 10.592 9.1049 10.0411 8.69857 9.63477C8.29224 9.22844 7.7413 9 7.16667 9H3.16667C2.59203 9 2.04109 9.22844 1.63477 9.63477C1.22844 10.0411 1 10.592 1 11.1667V12.5C1 12.7761 0.776142 13 0.5 13C0.223858 13 0 12.7761 0 12.5V11.1667C0 10.3268 0.333869 9.5216 0.927734 8.92773C1.5216 8.33387 2.32681 8 3.16667 8H7.16667C8.00652 8 8.81173 8.33387 9.4056 8.92773C9.99946 9.5216 10.3333 10.3268 10.3333 11.1667V12.5C10.3333 12.7761 10.1095 13 9.83333 13C9.55719 13 9.33333 12.7761 9.33333 12.5Z" fill="var(--fill-0, #1C1917)"/>
<path d="M7.33333 3.16667C7.33333 1.97005 6.36328 1 5.16667 1C3.97005 1 3 1.97005 3 3.16667C3 4.36328 3.97005 5.33333 5.16667 5.33333C6.36328 5.33333 7.33333 4.36328 7.33333 3.16667ZM8.33333 3.16667C8.33333 4.91557 6.91557 6.33333 5.16667 6.33333C3.41776 6.33333 2 4.91557 2 3.16667C2 1.41777 3.41776 0 5.16667 0C6.91557 0 8.33333 1.41777 8.33333 3.16667Z" fill="var(--fill-0, #1C1917)"/>
</g>
</svg>
