<svg preserveAspectRatio="none" width="100%" height="100%" overflow="visible" style="display: block;" viewBox="0 0 91.9266 55.2504" fill="none" xmlns="http://www.w3.org/2000/svg">
<g id="FakeSignatur">
<path id="Vector 1" d="M0.500015 48.1489C14.4931 36.722 24.7509 26.41 29.1417 19.8925C30.2207 18.2909 26.6522 22.5667 20.0884 32.5319C11.3359 45.8197 8.06827 54.8409 10.1832 54.7497C11.9552 54.6733 14.7036 52.3503 18.6589 48.9809C22.6143 45.6115 27.5801 40.7074 32.0654 35.765C40.7002 26.2501 45.803 17.8506 48.0405 12.718C48.8923 10.7641 49.0023 10.0608 47.901 10.8027C44.1396 13.3367 39.4999 18.8684 33.8944 25.9673C21.1588 42.0961 20.6295 47.7009 20.6983 49.0358C20.7285 49.6201 21.8272 49.6906 23.1933 49.4103C26.5159 48.7285 31.7516 45.2475 38.3405 40.1017C50.3033 30.7592 52.4888 23.0321 53.138 20.7599C53.3567 19.9946 50.3423 22.8208 46.8328 28.0988C40.7501 37.2468 37.4771 44.215 37.4303 45.1688C38.5198 44.9848 40.5096 43.6771 43.058 41.7583C44.473 40.7534 46.1353 39.6854 48.077 38.585" stroke="var(--stroke-0, #1C1917)" stroke-linecap="round"/>
<path id="Vector 2" d="M56.5441 19.152C49.8462 30.892 43.1483 42.6321 40.9711 46.5967C38.7939 50.5612 41.3404 46.3946 44.9931 39.3454C48.6458 32.2963 53.3276 22.491 57.1907 15.4705C61.0538 8.45005 63.9563 4.51151 66.0938 2.44406C68.2312 0.376612 69.5158 0.2996 70.6308 0.675504C72.8622 1.42771 74.418 4.09898 77.3708 10.2581C79.6393 14.9895 82.8797 23.2538 85.3046 28.7609C87.7295 34.268 89.0895 36.837 89.4847 38.576C89.8798 40.3151 89.2688 41.1462 82.8606 42.2192C76.4524 43.2922 64.2655 44.5818 57.3009 45.2461C46.3654 46.2892 43.2393 45.4481 41.9332 45.4099C40.4706 45.3672 49.597 41.7339 64.3806 37.0611C69.1655 35.5487 68.7973 37.0803 68.3323 38.1564C66.5066 42.3812 65.8607 47.4617 66.4266 50.681C66.6365 51.8747 68.9006 51.9105 70.919 51.9869C75.5315 50.9173 80.6536 49.058 83.6553 49.3969C85.5237 49.7366 88.0927 50.4166 91.4265 51.1173" stroke="var(--stroke-0, #1C1917)" stroke-linecap="round"/>
</g>
</svg>
