<svg preserveAspectRatio="none" width="100%" height="100%" overflow="visible" style="display: block;" viewBox="0 0 141.42 48.18" fill="none" xmlns="http://www.w3.org/2000/svg">
<g id="Logo_Hochschule" clip-path="url(#clip0_0_8)">
<path id="Vector" d="M6.82 32.72C6.3 32.94 6.2 32.99 6.09 33.04C5.98 33.1 5.93 33.15 5.96 33.27C5.96 33.3 5.99 33.36 6.01 33.41C6.03 33.45 6.03 33.47 6.01 33.48C5.99 33.49 5.97 33.48 5.95 33.42C5.87 33.24 5.79 33.02 5.74 32.91C5.7 32.83 5.6 32.62 5.55 32.49C5.53 32.44 5.52 32.41 5.55 32.4C5.57 32.39 5.59 32.4 5.6 32.44C5.62 32.48 5.63 32.5 5.65 32.53C5.71 32.62 5.78 32.62 5.9 32.57C6.01 32.53 6.11 32.49 6.63 32.27L7.11 32.06C7.61 31.85 7.78 31.66 7.84 31.43C7.9 31.22 7.84 31.06 7.8 30.94C7.74 30.79 7.61 30.62 7.41 30.55C7.14 30.44 6.83 30.56 6.47 30.72L6.04 30.9C5.52 31.12 5.42 31.17 5.31 31.22C5.2 31.28 5.15 31.33 5.18 31.45C5.18 31.48 5.21 31.54 5.22 31.58C5.24 31.62 5.24 31.64 5.22 31.65C5.2 31.66 5.18 31.64 5.16 31.59C5.09 31.41 5 31.19 5 31.19C4.98 31.15 4.88 30.94 4.82 30.8C4.8 30.75 4.8 30.72 4.82 30.71C4.84 30.7 4.86 30.71 4.88 30.76C4.9 30.8 4.91 30.82 4.93 30.86C4.99 30.95 5.06 30.95 5.18 30.9C5.29 30.86 5.39 30.82 5.91 30.59L6.28 30.43C6.66 30.27 7.08 30.13 7.45 30.31C7.76 30.46 7.91 30.7 8 30.92C8.08 31.1 8.21 31.44 8.09 31.79C8.01 32.03 7.81 32.27 7.31 32.49L6.81 32.7L6.82 32.72ZM6.68 28.9C6.96 28.83 7.05 28.76 7.06 28.68C7.06 28.61 7.06 28.54 7.04 28.48C7.04 28.44 7.04 28.42 7.06 28.41C7.09 28.41 7.1 28.44 7.11 28.49C7.16 28.73 7.18 28.88 7.2 28.95C7.2 28.98 7.26 29.15 7.3 29.34C7.31 29.39 7.31 29.42 7.28 29.43C7.26 29.43 7.25 29.41 7.24 29.38C7.23 29.33 7.21 29.27 7.19 29.22C7.14 29.13 7.03 29.14 6.71 29.21L4.54 29.65C4.47 29.67 4.41 29.67 4.41 29.63C4.41 29.59 4.44 29.55 4.49 29.47C4.53 29.42 5 28.73 5.41 28.08C5.6 27.78 6.02 27.17 6.07 27.09V27.07L4.43 27.47C4.21 27.52 4.15 27.57 4.13 27.67C4.13 27.73 4.13 27.82 4.15 27.87C4.15 27.91 4.15 27.93 4.13 27.94C4.1 27.94 4.09 27.91 4.08 27.85C4.04 27.66 4.01 27.48 3.99 27.41C3.99 27.37 3.94 27.23 3.9 27.05C3.89 27 3.89 26.97 3.91 26.96C3.93 26.96 3.95 26.97 3.96 27.02C3.96 27.06 3.97 27.09 4 27.13C4.05 27.23 4.13 27.24 4.34 27.2L6.65 26.73C6.73 26.71 6.77 26.73 6.77 26.75C6.77 26.79 6.75 26.84 6.72 26.89C6.55 27.17 6.18 27.74 5.88 28.2C5.57 28.69 5.21 29.19 5.15 29.27L6.68 28.9ZM4.87 25.56C4.3 25.6 4.2 25.6 4.08 25.62C3.95 25.64 3.89 25.68 3.88 25.76C3.88 25.8 3.88 25.85 3.88 25.9C3.88 25.94 3.88 25.96 3.85 25.96C3.83 25.96 3.82 25.93 3.81 25.87C3.81 25.73 3.8 25.49 3.79 25.38C3.79 25.29 3.76 25.07 3.75 24.93C3.75 24.88 3.75 24.85 3.78 24.85C3.81 24.85 3.82 24.87 3.82 24.91C3.82 24.95 3.82 24.98 3.84 25.02C3.86 25.12 3.93 25.15 4.06 25.14C4.18 25.14 4.28 25.14 4.85 25.1L5.51 25.06C5.87 25.04 6.17 25.02 6.33 24.99C6.43 24.97 6.5 24.94 6.5 24.83C6.5 24.78 6.5 24.69 6.5 24.64C6.5 24.6 6.5 24.58 6.53 24.58C6.56 24.58 6.57 24.61 6.57 24.65C6.59 24.9 6.59 25.13 6.6 25.23C6.6 25.32 6.63 25.55 6.64 25.7C6.64 25.75 6.64 25.78 6.61 25.78C6.59 25.78 6.58 25.77 6.58 25.72C6.58 25.66 6.57 25.62 6.56 25.59C6.54 25.52 6.48 25.5 6.37 25.49C6.21 25.49 5.92 25.49 5.56 25.52L4.9 25.56H4.87ZM4.07 23.88C3.86 23.95 3.81 24.01 3.77 24.15C3.75 24.21 3.75 24.26 3.75 24.29C3.75 24.32 3.74 24.33 3.71 24.33C3.68 24.33 3.68 24.29 3.68 24.23C3.69 24.03 3.72 23.82 3.73 23.69C3.73 23.6 3.73 23.42 3.75 23.23C3.75 23.18 3.76 23.14 3.79 23.15C3.82 23.15 3.82 23.17 3.82 23.21C3.82 23.27 3.82 23.33 3.84 23.36C3.86 23.39 3.88 23.4 3.92 23.4C3.97 23.4 4.08 23.38 4.21 23.33L5.95 22.8C5.55 22.6 4.38 22.04 4.14 21.93C4.09 21.91 4.04 21.89 4 21.89C3.97 21.89 3.94 21.9 3.93 21.93C3.91 21.97 3.91 22.03 3.9 22.08C3.9 22.11 3.9 22.14 3.87 22.14C3.84 22.14 3.83 22.1 3.84 22.03C3.85 21.84 3.87 21.69 3.88 21.64C3.88 21.58 3.88 21.4 3.89 21.29C3.89 21.24 3.9 21.21 3.93 21.21C3.96 21.21 3.96 21.23 3.96 21.27C3.96 21.31 3.96 21.39 3.99 21.46C4.02 21.51 4.08 21.57 4.31 21.69C4.65 21.86 4.85 21.97 5.29 22.2C5.82 22.47 6.22 22.68 6.4 22.77C6.61 22.88 6.67 22.91 6.67 22.96C6.67 23.01 6.61 23.03 6.43 23.09L4.09 23.88H4.07ZM5.13 20.57C4.57 20.45 4.47 20.43 4.35 20.41C4.22 20.39 4.16 20.41 4.11 20.52C4.1 20.55 4.08 20.61 4.07 20.66C4.07 20.7 4.05 20.72 4.02 20.72C3.99 20.72 3.99 20.69 4 20.63C4.02 20.53 4.05 20.43 4.07 20.33C4.09 20.24 4.12 20.15 4.13 20.1C4.15 19.98 4.31 19.25 4.32 19.18C4.32 19.11 4.33 19.05 4.33 19.02C4.33 19 4.33 18.98 4.33 18.96C4.33 18.94 4.35 18.94 4.37 18.95C4.4 18.95 4.44 18.98 4.6 19.03C4.64 19.04 4.8 19.08 4.84 19.1C4.86 19.1 4.88 19.12 4.87 19.15C4.87 19.18 4.85 19.18 4.81 19.17C4.78 19.17 4.72 19.15 4.67 19.17C4.6 19.18 4.55 19.21 4.49 19.39C4.47 19.45 4.38 19.83 4.36 19.91C4.36 19.93 4.36 19.94 4.39 19.94L5.32 20.14C5.32 20.14 5.36 20.14 5.37 20.12C5.39 20.04 5.48 19.62 5.49 19.53C5.5 19.44 5.5 19.38 5.47 19.34C5.45 19.31 5.43 19.29 5.43 19.27C5.43 19.26 5.44 19.25 5.46 19.25C5.48 19.25 5.54 19.28 5.72 19.34C5.79 19.36 5.94 19.4 5.96 19.41C5.99 19.41 6.03 19.43 6.02 19.46C6.02 19.49 6 19.49 5.98 19.49C5.94 19.49 5.9 19.48 5.85 19.48C5.77 19.48 5.71 19.52 5.66 19.65C5.64 19.72 5.56 20.08 5.54 20.17C5.54 20.19 5.55 20.19 5.57 20.2L5.86 20.26C5.98 20.29 6.32 20.36 6.43 20.38C6.68 20.43 6.75 20.38 6.83 20.01C6.85 19.91 6.88 19.76 6.86 19.66C6.84 19.56 6.77 19.5 6.62 19.44C6.58 19.42 6.57 19.41 6.57 19.39C6.57 19.36 6.61 19.37 6.64 19.37C6.72 19.39 6.97 19.47 7.04 19.5C7.13 19.55 7.12 19.58 7.09 19.72C7.03 19.99 6.98 20.19 6.94 20.35C6.9 20.51 6.87 20.62 6.85 20.73C6.85 20.77 6.82 20.85 6.81 20.94C6.79 21.02 6.78 21.12 6.76 21.19C6.75 21.24 6.73 21.26 6.71 21.26C6.69 21.26 6.68 21.24 6.69 21.2C6.7 21.15 6.7 21.1 6.7 21.07C6.7 20.99 6.62 20.96 6.52 20.92C6.37 20.87 6.08 20.81 5.74 20.73L5.1 20.59L5.13 20.57ZM5.82 17.88C5.29 17.67 5.19 17.64 5.08 17.6C4.96 17.56 4.89 17.57 4.82 17.67C4.8 17.7 4.78 17.75 4.76 17.8C4.75 17.84 4.73 17.86 4.71 17.85C4.69 17.85 4.69 17.81 4.71 17.76C4.78 17.57 4.88 17.36 4.91 17.29C4.96 17.17 5.05 16.9 5.09 16.79C5.17 16.57 5.29 16.34 5.49 16.21C5.59 16.14 5.83 16.07 6.06 16.16C6.32 16.26 6.51 16.46 6.66 16.92C7.17 16.76 7.57 16.64 7.87 16.52C8.15 16.4 8.23 16.27 8.26 16.22C8.28 16.18 8.3 16.15 8.31 16.13C8.32 16.1 8.34 16.09 8.35 16.1C8.38 16.11 8.38 16.14 8.35 16.18L8.22 16.51C8.14 16.71 8.09 16.79 8.01 16.86C7.87 16.98 7.66 17.05 7.31 17.14C7.06 17.21 6.77 17.27 6.69 17.3C6.66 17.3 6.65 17.33 6.64 17.35L6.52 17.65C6.52 17.65 6.52 17.68 6.54 17.69L6.59 17.71C6.91 17.84 7.19 17.94 7.34 17.98C7.45 18.01 7.53 18.02 7.58 17.92C7.61 17.87 7.64 17.8 7.66 17.75C7.67 17.72 7.69 17.71 7.7 17.72C7.72 17.72 7.73 17.76 7.7 17.8C7.62 18 7.51 18.26 7.49 18.31C7.46 18.38 7.39 18.6 7.34 18.74C7.32 18.79 7.3 18.81 7.28 18.8C7.26 18.8 7.26 18.78 7.28 18.73C7.3 18.68 7.31 18.63 7.31 18.6C7.32 18.52 7.25 18.48 7.16 18.42C7.02 18.35 6.74 18.24 6.42 18.12L5.81 17.88H5.82ZM6.26 17.57C6.26 17.57 6.31 17.58 6.33 17.57C6.38 17.51 6.43 17.41 6.47 17.32C6.52 17.18 6.53 17.13 6.51 17.05C6.47 16.92 6.35 16.75 6.07 16.64C5.57 16.45 5.3 16.72 5.23 16.93C5.2 17.02 5.18 17.08 5.17 17.12C5.17 17.15 5.17 17.16 5.21 17.17L6.27 17.58L6.26 17.57ZM8.46 16.01C8.41 16.05 8.39 16.05 8.31 16.01C8.13 15.91 7.94 15.78 7.89 15.75C7.84 15.72 7.81 15.69 7.83 15.66C7.85 15.63 7.88 15.64 7.9 15.66C7.94 15.68 8.02 15.71 8.08 15.72C8.36 15.79 8.56 15.64 8.67 15.44C8.84 15.15 8.72 14.89 8.55 14.79C8.39 14.7 8.21 14.66 7.85 14.81L7.65 14.89C7.17 15.09 6.87 15.08 6.61 14.93C6.25 14.73 6.17 14.28 6.42 13.83C6.54 13.62 6.65 13.5 6.72 13.43C6.74 13.4 6.76 13.39 6.78 13.41C6.82 13.43 6.91 13.5 7.16 13.64C7.23 13.68 7.25 13.71 7.24 13.73C7.23 13.75 7.2 13.75 7.16 13.73C7.13 13.71 7.02 13.67 6.9 13.69C6.81 13.7 6.66 13.74 6.54 13.95C6.4 14.19 6.46 14.42 6.66 14.53C6.81 14.62 6.97 14.61 7.32 14.45L7.44 14.4C7.96 14.17 8.26 14.16 8.57 14.34C8.76 14.45 8.94 14.65 8.96 14.97C8.97 15.19 8.9 15.39 8.8 15.56C8.69 15.75 8.59 15.88 8.45 15.99L8.46 16.01ZM8.37 12.92C7.91 12.58 7.83 12.52 7.72 12.46C7.61 12.39 7.54 12.38 7.48 12.44C7.45 12.47 7.42 12.5 7.39 12.54C7.37 12.57 7.35 12.58 7.32 12.57C7.3 12.56 7.32 12.53 7.35 12.48C7.43 12.37 7.58 12.18 7.65 12.09C7.71 12.01 7.83 11.83 7.91 11.71C7.94 11.67 7.96 11.65 7.98 11.66C8 11.68 8 11.7 7.98 11.73C7.96 11.76 7.94 11.79 7.92 11.83C7.88 11.92 7.91 11.98 8.01 12.07C8.1 12.15 8.19 12.21 8.65 12.54L9.18 12.93C9.47 13.14 9.71 13.32 9.85 13.4C9.94 13.45 10.01 13.47 10.09 13.39C10.13 13.35 10.18 13.29 10.21 13.24C10.23 13.21 10.25 13.2 10.27 13.21C10.29 13.23 10.28 13.26 10.26 13.29C10.11 13.49 9.97 13.67 9.91 13.75C9.86 13.82 9.73 14.02 9.64 14.14C9.61 14.18 9.59 14.19 9.57 14.18C9.55 14.17 9.55 14.15 9.58 14.11C9.61 14.06 9.63 14.02 9.65 13.99C9.68 13.92 9.65 13.87 9.56 13.79C9.44 13.68 9.21 13.51 8.91 13.29L8.38 12.9L8.37 12.92ZM9.29 10.41L8.92 10.82C8.78 10.98 8.73 11.06 8.75 11.16C8.76 11.23 8.78 11.27 8.8 11.3C8.82 11.33 8.82 11.34 8.8 11.36C8.78 11.38 8.76 11.37 8.73 11.34C8.69 11.3 8.49 11.01 8.47 10.99C8.44 10.95 8.43 10.93 8.45 10.91C8.47 10.89 8.52 10.89 8.59 10.82C8.67 10.75 8.78 10.65 8.86 10.56L9.88 9.48C9.96 9.39 10.01 9.33 10.04 9.28C10.07 9.23 10.09 9.2 10.1 9.19C10.12 9.17 10.14 9.19 10.18 9.22C10.24 9.27 10.42 9.46 10.49 9.53C10.51 9.56 10.53 9.58 10.51 9.6C10.49 9.62 10.47 9.61 10.43 9.58L10.4 9.55C10.32 9.49 10.18 9.49 9.94 9.73L9.61 10.06L10.72 11.11C10.97 11.35 11.18 11.55 11.31 11.65C11.39 11.71 11.47 11.75 11.56 11.68C11.6 11.65 11.66 11.59 11.7 11.55C11.73 11.52 11.75 11.51 11.76 11.53C11.78 11.55 11.76 11.58 11.74 11.61C11.57 11.79 11.4 11.95 11.33 12.03C11.27 12.09 11.12 12.27 11.01 12.38C10.98 12.42 10.95 12.43 10.93 12.41C10.92 12.4 10.92 12.38 10.95 12.35C10.99 12.31 11.01 12.27 11.03 12.24C11.07 12.18 11.03 12.1 10.95 12.02C10.85 11.9 10.63 11.7 10.38 11.46L9.27 10.41H9.29ZM12.13 9.95C12.13 9.95 12.11 9.97 12.13 9.99L12.31 10.53C12.34 10.63 12.38 10.71 12.41 10.74C12.45 10.79 12.51 10.81 12.6 10.74L12.64 10.71C12.64 10.71 12.69 10.68 12.7 10.7C12.72 10.72 12.7 10.74 12.67 10.77C12.58 10.84 12.44 10.94 12.35 11.01C12.32 11.04 12.16 11.17 12.01 11.29C11.97 11.32 11.95 11.33 11.93 11.31C11.92 11.29 11.93 11.28 11.95 11.26C11.98 11.24 12.02 11.2 12.04 11.18C12.16 11.06 12.14 10.91 12.08 10.72L11.35 8.3C11.32 8.19 11.31 8.14 11.34 8.12C11.37 8.1 11.4 8.12 11.49 8.16C11.69 8.26 13.11 9.08 13.65 9.38C13.97 9.55 14.09 9.53 14.16 9.49C14.21 9.46 14.26 9.43 14.29 9.4C14.31 9.38 14.33 9.37 14.35 9.4C14.37 9.42 14.35 9.45 14.24 9.54C14.13 9.62 13.92 9.79 13.68 9.97C13.62 10.01 13.59 10.04 13.57 10.02C13.56 10 13.57 9.99 13.59 9.96C13.61 9.94 13.61 9.9 13.56 9.87L12.83 9.44C12.83 9.44 12.8 9.44 12.78 9.44L12.13 9.96V9.95ZM12.61 9.33C12.61 9.33 12.62 9.31 12.61 9.3L11.77 8.79C11.77 8.79 11.74 8.77 11.73 8.78C11.73 8.78 11.73 8.81 11.73 8.82L12.03 9.75C12.03 9.75 12.05 9.77 12.06 9.76L12.6 9.33H12.61ZM14.56 9.3C14.5 9.3 14.48 9.3 14.43 9.23C14.33 9.05 14.22 8.85 14.2 8.8C14.17 8.75 14.16 8.71 14.19 8.69C14.22 8.67 14.24 8.69 14.25 8.73C14.27 8.77 14.33 8.83 14.38 8.88C14.59 9.08 14.83 9.05 15.03 8.93C15.32 8.76 15.34 8.48 15.24 8.31C15.15 8.15 15.01 8.03 14.62 7.98L14.4 7.95C13.88 7.88 13.63 7.73 13.47 7.47C13.26 7.12 13.41 6.69 13.85 6.42C14.06 6.3 14.21 6.25 14.31 6.22C14.34 6.21 14.36 6.21 14.38 6.23C14.4 6.27 14.45 6.37 14.6 6.62C14.64 6.69 14.65 6.72 14.62 6.74C14.6 6.75 14.58 6.74 14.55 6.7C14.53 6.67 14.46 6.58 14.34 6.54C14.26 6.51 14.11 6.47 13.9 6.59C13.66 6.73 13.6 6.96 13.71 7.15C13.8 7.3 13.94 7.37 14.33 7.41H14.46C15.02 7.49 15.29 7.63 15.47 7.93C15.58 8.12 15.64 8.38 15.5 8.67C15.4 8.87 15.24 9 15.07 9.11C14.88 9.22 14.73 9.28 14.55 9.3H14.56ZM34.09 6.58L33.6 6.31C33.41 6.21 33.32 6.18 33.23 6.22C33.17 6.25 33.13 6.28 33.11 6.3C33.09 6.32 33.07 6.33 33.05 6.32C33.03 6.31 33.03 6.29 33.05 6.25C33.08 6.2 33.31 5.94 33.34 5.92C33.37 5.88 33.4 5.87 33.41 5.88C33.44 5.9 33.45 5.95 33.53 6C33.62 6.06 33.74 6.14 33.84 6.21L35.12 6.96C35.22 7.02 35.3 7.05 35.35 7.07C35.4 7.09 35.43 7.1 35.45 7.1C35.47 7.11 35.46 7.13 35.44 7.18C35.4 7.25 35.26 7.46 35.21 7.55C35.19 7.58 35.17 7.6 35.15 7.58C35.12 7.56 35.13 7.54 35.15 7.49L35.17 7.45C35.21 7.36 35.17 7.22 34.9 7.05L34.5 6.8L33.72 8.12C33.55 8.42 33.4 8.67 33.33 8.82C33.29 8.92 33.26 9 33.35 9.07C33.39 9.1 33.46 9.15 33.51 9.18C33.55 9.2 33.56 9.22 33.55 9.24C33.54 9.26 33.51 9.26 33.47 9.24C33.26 9.12 33.06 8.99 32.97 8.93C32.9 8.89 32.69 8.78 32.56 8.7C32.52 8.68 32.5 8.65 32.51 8.63C32.51 8.61 32.54 8.61 32.58 8.63C32.63 8.66 32.67 8.67 32.7 8.69C32.77 8.72 32.83 8.66 32.9 8.57C33 8.44 33.15 8.19 33.32 7.89L34.1 6.57L34.09 6.58ZM35.77 8.71C36.14 8.28 36.21 8.2 36.28 8.1C36.36 8 36.37 7.93 36.3 7.83C36.28 7.8 36.24 7.76 36.2 7.73C36.17 7.7 36.16 7.68 36.17 7.66C36.19 7.64 36.21 7.66 36.25 7.69C36.4 7.82 36.57 7.98 36.66 8.05C36.73 8.11 36.91 8.25 37.02 8.34C37.06 8.38 37.08 8.4 37.06 8.42C37.04 8.44 37.02 8.43 36.99 8.41C36.96 8.38 36.94 8.37 36.9 8.35C36.81 8.3 36.75 8.33 36.66 8.42C36.58 8.51 36.51 8.59 36.14 9.02L35.8 9.42C35.45 9.83 35.38 10.08 35.42 10.31C35.46 10.52 35.58 10.65 35.67 10.73C35.79 10.84 35.98 10.93 36.19 10.91C36.48 10.89 36.71 10.64 36.96 10.35L37.26 10C37.63 9.57 37.7 9.49 37.77 9.39C37.85 9.29 37.86 9.22 37.79 9.12C37.77 9.09 37.73 9.05 37.7 9.02C37.67 8.99 37.66 8.97 37.67 8.95C37.69 8.93 37.71 8.95 37.75 8.98C37.89 9.1 38.07 9.27 38.07 9.27C38.1 9.3 38.29 9.44 38.4 9.54C38.44 9.57 38.45 9.6 38.44 9.62C38.43 9.64 38.4 9.63 38.37 9.6C38.34 9.57 38.32 9.56 38.28 9.54C38.19 9.49 38.13 9.52 38.04 9.61C37.96 9.7 37.89 9.78 37.52 10.21L37.26 10.51C36.99 10.82 36.67 11.13 36.26 11.13C35.91 11.13 35.68 10.99 35.49 10.83C35.34 10.7 35.07 10.46 35.03 10.09C35 9.84 35.07 9.53 35.42 9.12L35.78 8.71H35.77ZM38.61 11.38C39.05 11.02 39.13 10.96 39.22 10.88C39.31 10.79 39.34 10.73 39.28 10.62C39.27 10.59 39.23 10.54 39.2 10.5C39.17 10.47 39.17 10.45 39.19 10.43C39.21 10.41 39.23 10.43 39.27 10.47C39.39 10.62 39.53 10.81 39.58 10.88C39.66 10.98 39.85 11.19 39.92 11.28C40.07 11.46 40.21 11.67 40.23 11.92C40.24 12.05 40.19 12.28 39.99 12.44C39.77 12.61 39.5 12.68 39.03 12.58C38.91 13.1 38.82 13.51 38.77 13.83C38.73 14.13 38.81 14.26 38.83 14.32C38.85 14.36 38.87 14.39 38.89 14.41C38.91 14.43 38.91 14.45 38.89 14.46C38.87 14.48 38.84 14.46 38.82 14.43L38.6 14.15C38.47 13.99 38.42 13.9 38.4 13.79C38.37 13.61 38.41 13.39 38.51 13.05C38.58 12.8 38.67 12.51 38.68 12.44C38.68 12.41 38.68 12.39 38.66 12.37L38.46 12.11C38.46 12.11 38.44 12.09 38.42 12.11L38.38 12.14C38.11 12.36 37.88 12.54 37.77 12.66C37.69 12.74 37.64 12.81 37.7 12.9C37.73 12.95 37.78 13.02 37.8 13.05C37.82 13.07 37.82 13.09 37.8 13.1C37.78 13.12 37.75 13.1 37.72 13.06C37.58 12.89 37.42 12.67 37.38 12.62C37.34 12.56 37.18 12.39 37.09 12.27C37.06 12.23 37.05 12.2 37.07 12.19C37.08 12.18 37.1 12.19 37.13 12.22C37.17 12.26 37.2 12.29 37.23 12.32C37.29 12.37 37.36 12.33 37.46 12.28C37.59 12.2 37.82 12.01 38.09 11.79L38.6 11.38H38.61ZM38.66 11.91C38.66 11.91 38.62 11.95 38.63 11.98C38.66 12.06 38.72 12.15 38.78 12.22C38.87 12.34 38.92 12.37 39 12.39C39.13 12.43 39.34 12.4 39.58 12.21C39.99 11.88 39.89 11.51 39.75 11.33C39.69 11.26 39.65 11.21 39.61 11.18C39.59 11.16 39.57 11.17 39.55 11.18L38.66 11.89V11.91ZM40.59 14.11C41.08 13.82 41.17 13.77 41.27 13.7C41.38 13.63 41.41 13.56 41.39 13.48C41.38 13.44 41.36 13.4 41.33 13.36C41.31 13.33 41.31 13.3 41.33 13.29C41.35 13.28 41.37 13.3 41.4 13.35C41.47 13.47 41.58 13.68 41.64 13.77C41.69 13.85 41.81 14.04 41.88 14.16C41.9 14.2 41.91 14.23 41.89 14.24C41.86 14.26 41.85 14.24 41.83 14.21C41.81 14.18 41.79 14.15 41.76 14.12C41.69 14.04 41.62 14.05 41.51 14.11C41.4 14.16 41.31 14.22 40.82 14.51L40.25 14.84C39.94 15.02 39.68 15.17 39.55 15.27C39.47 15.33 39.42 15.39 39.47 15.49C39.49 15.54 39.53 15.61 39.55 15.66C39.57 15.7 39.57 15.72 39.55 15.73C39.53 15.74 39.5 15.73 39.48 15.69C39.36 15.48 39.24 15.27 39.19 15.18C39.15 15.11 39.02 14.91 38.94 14.78C38.92 14.74 38.91 14.71 38.94 14.7C38.96 14.7 38.97 14.7 39 14.74C39.03 14.79 39.06 14.82 39.08 14.85C39.13 14.91 39.2 14.89 39.3 14.85C39.44 14.79 39.7 14.64 40.01 14.45L40.58 14.12L40.59 14.11ZM40.31 16.49C40.47 16.03 40.82 15.78 41.15 15.64C41.38 15.54 41.82 15.45 42.26 15.65C42.59 15.8 42.86 16.08 43.08 16.59C43.17 16.8 43.21 16.94 43.25 17.11C43.29 17.25 43.3 17.37 43.33 17.48C43.34 17.52 43.33 17.54 43.31 17.55C43.28 17.56 43.24 17.57 43.11 17.61C42.99 17.65 42.8 17.73 42.73 17.75C42.68 17.77 42.65 17.77 42.63 17.75C42.62 17.72 42.64 17.7 42.69 17.68C42.8 17.63 42.9 17.54 42.95 17.41C43.02 17.25 43.01 16.94 42.87 16.62C42.75 16.32 42.59 16.15 42.39 16.06C42.05 15.9 41.7 15.97 41.36 16.11C40.54 16.45 40.39 17.24 40.58 17.71C40.71 18.02 40.82 18.19 41.04 18.26C41.13 18.29 41.25 18.3 41.32 18.28C41.38 18.27 41.4 18.27 41.41 18.3C41.41 18.32 41.4 18.34 41.37 18.35C41.33 18.37 41.01 18.45 40.88 18.46C40.81 18.46 40.79 18.46 40.74 18.41C40.63 18.29 40.49 18.04 40.4 17.82C40.2 17.35 40.14 16.91 40.29 16.48L40.31 16.49ZM42.78 19.29C43.33 19.17 43.44 19.14 43.55 19.11C43.67 19.08 43.72 19.03 43.72 18.91C43.72 18.88 43.72 18.82 43.7 18.77C43.7 18.73 43.7 18.71 43.72 18.7C43.75 18.7 43.76 18.72 43.77 18.77C43.79 18.87 43.81 18.98 43.83 19.07C43.85 19.17 43.86 19.25 43.87 19.3C43.9 19.42 44.06 20.14 44.08 20.21C44.1 20.28 44.12 20.33 44.14 20.36C44.14 20.38 44.16 20.4 44.17 20.42C44.17 20.44 44.17 20.44 44.14 20.45C44.11 20.45 44.07 20.45 43.9 20.47C43.86 20.47 43.7 20.5 43.65 20.51C43.63 20.51 43.61 20.51 43.6 20.48C43.59 20.45 43.61 20.44 43.64 20.44C43.67 20.44 43.73 20.42 43.77 20.39C43.83 20.35 43.87 20.3 43.85 20.12C43.85 20.06 43.76 19.67 43.75 19.6C43.75 19.58 43.73 19.58 43.71 19.58L42.79 19.79C42.79 19.79 42.75 19.8 42.76 19.82C42.78 19.9 42.87 20.32 42.9 20.4C42.93 20.49 42.95 20.54 42.99 20.56C43.02 20.58 43.05 20.59 43.05 20.61C43.05 20.62 43.05 20.64 43.03 20.64C43.01 20.64 42.95 20.64 42.76 20.67C42.69 20.68 42.54 20.7 42.51 20.71C42.48 20.71 42.44 20.73 42.43 20.69C42.43 20.66 42.43 20.65 42.46 20.65C42.5 20.64 42.54 20.63 42.59 20.61C42.66 20.58 42.7 20.51 42.69 20.37C42.69 20.3 42.6 19.94 42.58 19.85C42.58 19.83 42.56 19.83 42.54 19.84L42.25 19.9C42.13 19.93 41.79 20 41.68 20.03C41.43 20.09 41.39 20.16 41.47 20.54C41.49 20.63 41.53 20.79 41.59 20.87C41.66 20.96 41.74 20.98 41.9 20.97C41.94 20.97 41.96 20.97 41.96 21C41.96 21.03 41.94 21.04 41.9 21.04C41.82 21.06 41.56 21.08 41.48 21.08C41.38 21.08 41.37 21.04 41.34 20.9C41.28 20.63 41.24 20.42 41.21 20.27C41.18 20.11 41.16 20 41.14 19.89C41.14 19.85 41.11 19.77 41.09 19.68C41.07 19.6 41.04 19.5 41.03 19.43C41.02 19.38 41.03 19.35 41.05 19.35C41.07 19.35 41.08 19.35 41.09 19.4C41.1 19.45 41.12 19.5 41.13 19.53C41.16 19.6 41.25 19.6 41.35 19.59C41.51 19.57 41.8 19.51 42.13 19.43L42.77 19.29H42.78ZM42.09 22.49C41.8 22.51 41.7 22.56 41.68 22.64C41.66 22.7 41.66 22.78 41.66 22.84C41.66 22.88 41.66 22.9 41.63 22.9C41.6 22.9 41.59 22.87 41.59 22.82C41.59 22.58 41.59 22.43 41.59 22.36C41.59 22.33 41.57 22.15 41.56 21.96C41.56 21.91 41.56 21.88 41.59 21.88C41.61 21.88 41.62 21.9 41.62 21.94C41.62 21.99 41.62 22.06 41.64 22.11C41.67 22.21 41.78 22.22 42.11 22.21L44.32 22.17C44.4 22.17 44.45 22.17 44.45 22.21C44.45 22.25 44.4 22.29 44.34 22.35C44.29 22.4 43.7 22.99 43.18 23.55C42.93 23.81 42.41 24.34 42.36 24.4V24.42L44.04 24.32C44.27 24.31 44.34 24.27 44.37 24.18C44.39 24.12 44.39 24.03 44.39 23.98C44.39 23.94 44.39 23.92 44.42 23.92C44.45 23.92 44.46 23.96 44.46 24.02C44.46 24.21 44.46 24.39 44.46 24.47C44.46 24.51 44.48 24.65 44.48 24.84C44.48 24.89 44.48 24.93 44.45 24.93C44.43 24.93 44.42 24.91 44.41 24.86C44.41 24.82 44.41 24.79 44.4 24.75C44.37 24.65 44.29 24.62 44.08 24.62L41.72 24.66C41.64 24.66 41.6 24.65 41.6 24.62C41.6 24.58 41.64 24.53 41.68 24.49C41.9 24.25 42.37 23.75 42.74 23.35C43.13 22.93 43.58 22.5 43.65 22.43L42.08 22.52L42.09 22.49ZM41.59 25.94C41.62 25.88 41.64 25.88 41.73 25.89C41.93 25.92 42.15 25.97 42.21 25.98C42.27 25.99 42.3 26.01 42.3 26.04C42.3 26.07 42.26 26.07 42.23 26.07C42.18 26.07 42.1 26.07 42.04 26.07C41.75 26.11 41.62 26.32 41.59 26.55C41.54 26.88 41.74 27.08 41.94 27.11C42.12 27.14 42.3 27.11 42.58 26.83L42.74 26.68C43.12 26.32 43.4 26.22 43.7 26.26C44.11 26.32 44.35 26.7 44.28 27.22C44.25 27.46 44.19 27.61 44.15 27.7C44.14 27.73 44.12 27.75 44.1 27.74C44.05 27.74 43.95 27.7 43.66 27.66C43.58 27.65 43.55 27.63 43.55 27.6C43.55 27.57 43.58 27.57 43.62 27.57C43.65 27.57 43.77 27.57 43.88 27.51C43.96 27.46 44.08 27.37 44.12 27.13C44.16 26.86 44.02 26.67 43.8 26.63C43.63 26.61 43.49 26.67 43.21 26.95L43.12 27.04C42.72 27.44 42.44 27.56 42.09 27.51C41.88 27.48 41.63 27.36 41.5 27.07C41.41 26.87 41.4 26.66 41.43 26.46C41.46 26.25 41.51 26.08 41.6 25.93L41.59 25.94ZM42.7 29.11C43.25 29.26 43.35 29.29 43.46 29.32C43.58 29.35 43.66 29.32 43.7 29.25C43.72 29.21 43.74 29.17 43.75 29.13C43.76 29.09 43.77 29.07 43.8 29.08C43.82 29.08 43.82 29.12 43.8 29.17C43.76 29.31 43.69 29.53 43.66 29.63C43.63 29.72 43.59 29.93 43.55 30.07C43.54 30.12 43.52 30.14 43.5 30.14C43.47 30.14 43.47 30.11 43.48 30.07C43.49 30.03 43.5 30 43.5 29.96C43.5 29.86 43.46 29.81 43.33 29.77C43.22 29.73 43.12 29.7 42.57 29.55L41.94 29.37C41.59 29.27 41.31 29.19 41.15 29.16C41.05 29.14 40.98 29.16 40.93 29.25C40.91 29.3 40.88 29.38 40.86 29.43C40.85 29.47 40.83 29.48 40.82 29.48C40.79 29.48 40.79 29.44 40.8 29.4C40.87 29.16 40.94 28.94 40.97 28.84C40.99 28.76 41.05 28.53 41.09 28.38C41.1 28.33 41.12 28.31 41.15 28.32C41.17 28.32 41.17 28.34 41.16 28.39C41.14 28.44 41.14 28.49 41.14 28.52C41.14 28.6 41.19 28.64 41.29 28.68C41.44 28.74 41.72 28.82 42.07 28.92L42.7 29.1V29.11ZM40.5 30.43C40.5 30.43 40.57 30.38 40.64 30.42C40.83 30.5 41.03 30.6 41.08 30.63C41.13 30.66 41.16 30.68 41.15 30.71C41.14 30.74 41.1 30.73 41.08 30.71C41.04 30.69 40.96 30.67 40.89 30.67C40.6 30.64 40.42 30.8 40.33 31.01C40.2 31.32 40.34 31.56 40.52 31.64C40.69 31.71 40.87 31.73 41.21 31.54L41.4 31.44C41.86 31.19 42.15 31.16 42.43 31.28C42.81 31.44 42.94 31.88 42.74 32.35C42.64 32.57 42.55 32.7 42.48 32.78C42.46 32.81 42.44 32.82 42.42 32.81C42.38 32.79 42.28 32.73 42.01 32.62C41.93 32.59 41.91 32.57 41.92 32.54C41.93 32.52 41.96 32.51 42 32.54C42.03 32.55 42.14 32.58 42.26 32.54C42.35 32.52 42.49 32.46 42.59 32.24C42.7 31.99 42.62 31.77 42.41 31.68C42.25 31.61 42.1 31.64 41.76 31.83L41.65 31.89C41.16 32.17 40.86 32.22 40.53 32.07C40.33 31.98 40.13 31.81 40.07 31.49C40.03 31.27 40.09 31.07 40.17 30.88C40.26 30.68 40.35 30.54 40.48 30.42L40.5 30.43ZM13.79 41.77C13.79 41.77 13.73 41.77 13.68 41.75C13.63 41.74 13.61 41.69 13.59 41.56L13.4 40.31C13.4 40.31 13.37 40.23 13.34 40.23C13.31 40.23 13.29 40.25 13.27 40.29L12.72 41.4L12.17 40.3C12.14 40.24 12.12 40.23 12.09 40.23C12.06 40.23 12.04 40.26 12.03 40.3L11.82 41.62C11.82 41.69 11.79 41.76 11.75 41.76C11.72 41.76 11.7 41.76 11.69 41.76C11.66 41.76 11.64 41.77 11.64 41.8C11.64 41.83 11.67 41.84 11.69 41.84C11.76 41.84 11.86 41.84 11.9 41.84C11.94 41.84 12.03 41.84 12.12 41.84C12.15 41.84 12.19 41.84 12.19 41.8C12.19 41.77 12.16 41.76 12.14 41.76C12.12 41.76 12.11 41.76 12.07 41.76C12.04 41.76 12.02 41.74 12.02 41.72C12.02 41.69 12.02 41.66 12.02 41.63L12.11 40.88C12.18 41.02 12.29 41.24 12.3 41.27C12.32 41.33 12.49 41.64 12.54 41.73C12.58 41.79 12.59 41.84 12.64 41.84C12.68 41.84 12.69 41.81 12.74 41.72L13.17 40.85L13.28 41.68C13.28 41.68 13.28 41.71 13.28 41.72C13.28 41.74 13.28 41.74 13.28 41.75C13.26 41.75 13.25 41.76 13.25 41.79C13.25 41.82 13.28 41.83 13.33 41.83C13.41 41.83 13.71 41.84 13.76 41.84C13.79 41.84 13.83 41.84 13.83 41.8C13.83 41.77 13.8 41.76 13.78 41.76L13.79 41.77ZM15.5 40.52C15.26 40.28 14.91 40.28 14.65 40.28C14.52 40.28 14.37 40.28 14.31 40.28C14.25 40.28 14.12 40.28 14.01 40.28C13.98 40.28 13.95 40.28 13.94 40.32C13.94 40.35 13.97 40.36 13.99 40.36C14.02 40.36 14.06 40.36 14.07 40.36C14.13 40.38 14.14 40.39 14.15 40.45C14.15 40.51 14.15 40.57 14.15 40.88V41.24C14.15 41.43 14.15 41.59 14.15 41.67C14.15 41.73 14.13 41.76 14.1 41.76C14.08 41.76 14.06 41.76 14.03 41.76C14 41.76 13.98 41.78 13.98 41.8C13.98 41.83 14.01 41.84 14.04 41.84C14.08 41.84 14.14 41.84 14.19 41.84C14.24 41.84 14.29 41.84 14.31 41.84C14.36 41.84 14.44 41.84 14.52 41.85C14.6 41.85 14.69 41.86 14.77 41.86C15.16 41.86 15.39 41.72 15.48 41.62C15.6 41.5 15.71 41.3 15.71 41.04C15.71 40.79 15.61 40.62 15.51 40.51L15.5 40.52ZM15.37 41.11C15.37 41.32 15.33 41.49 15.2 41.6C15.08 41.7 14.94 41.73 14.75 41.73C14.59 41.73 14.51 41.69 14.49 41.66C14.48 41.65 14.47 41.57 14.47 41.53C14.47 41.49 14.47 41.33 14.47 41.12V40.87C14.47 40.71 14.47 40.54 14.47 40.48C14.47 40.46 14.47 40.46 14.49 40.45C14.49 40.45 14.57 40.44 14.61 40.44C14.77 40.44 15 40.46 15.18 40.63C15.27 40.71 15.37 40.87 15.37 41.12V41.11ZM17.35 41.43C17.35 41.43 17.31 41.46 17.31 41.48C17.31 41.51 17.28 41.57 17.24 41.61C17.16 41.7 17.07 41.71 16.88 41.71C16.61 41.71 16.24 41.49 16.24 41.02C16.24 40.82 16.28 40.63 16.43 40.51C16.52 40.43 16.63 40.4 16.81 40.4C16.99 40.4 17.14 40.45 17.2 40.51C17.25 40.56 17.27 40.63 17.28 40.69C17.28 40.71 17.28 40.75 17.32 40.75C17.36 40.75 17.36 40.71 17.37 40.68C17.37 40.64 17.37 40.53 17.37 40.46C17.37 40.39 17.37 40.37 17.37 40.35C17.37 40.33 17.35 40.31 17.32 40.31C17.26 40.31 17.19 40.29 17.11 40.28C17.01 40.27 16.93 40.26 16.8 40.26C16.49 40.26 16.28 40.34 16.12 40.48C15.91 40.66 15.87 40.91 15.87 41.05C15.87 41.25 15.93 41.48 16.14 41.66C16.33 41.82 16.58 41.88 16.87 41.88C17.01 41.88 17.17 41.87 17.25 41.83C17.29 41.82 17.31 41.8 17.31 41.76C17.33 41.69 17.36 41.51 17.36 41.49C17.36 41.47 17.36 41.44 17.32 41.44L17.35 41.43ZM19.03 41.43C19.03 41.43 18.99 41.46 18.99 41.48C18.99 41.51 18.96 41.57 18.92 41.61C18.84 41.7 18.75 41.71 18.56 41.71C18.29 41.71 17.93 41.49 17.92 41.02C17.92 40.82 17.96 40.63 18.11 40.51C18.2 40.43 18.31 40.4 18.49 40.4C18.67 40.4 18.82 40.45 18.88 40.51C18.93 40.56 18.95 40.63 18.96 40.69C18.96 40.71 18.96 40.75 19 40.75C19.04 40.75 19.04 40.71 19.05 40.68C19.05 40.64 19.05 40.53 19.05 40.46C19.05 40.39 19.05 40.37 19.05 40.35C19.05 40.33 19.03 40.31 19 40.31C18.94 40.31 18.87 40.29 18.79 40.28C18.69 40.27 18.61 40.26 18.48 40.26C18.17 40.26 17.96 40.34 17.8 40.48C17.59 40.66 17.55 40.91 17.55 41.05C17.55 41.25 17.61 41.48 17.82 41.66C18.01 41.82 18.26 41.88 18.55 41.88C18.69 41.88 18.85 41.87 18.94 41.83C18.98 41.82 19 41.8 19 41.76C19.02 41.69 19.05 41.51 19.05 41.49C19.05 41.47 19.05 41.44 19.01 41.44L19.03 41.43ZM20.71 41.43C20.71 41.43 20.67 41.46 20.67 41.48C20.67 41.51 20.64 41.57 20.6 41.61C20.52 41.7 20.43 41.71 20.24 41.71C19.97 41.71 19.61 41.49 19.6 41.02C19.6 40.82 19.64 40.63 19.79 40.51C19.88 40.43 19.99 40.4 20.17 40.4C20.35 40.4 20.5 40.45 20.56 40.51C20.61 40.56 20.63 40.63 20.64 40.69C20.64 40.71 20.64 40.75 20.68 40.75C20.72 40.75 20.72 40.71 20.73 40.68C20.73 40.64 20.73 40.53 20.73 40.46C20.73 40.39 20.73 40.37 20.73 40.35C20.73 40.33 20.71 40.31 20.68 40.31C20.62 40.31 20.55 40.29 20.47 40.28C20.37 40.27 20.29 40.26 20.16 40.26C19.85 40.26 19.64 40.34 19.48 40.48C19.28 40.66 19.23 40.91 19.23 41.05C19.23 41.25 19.29 41.48 19.5 41.66C19.69 41.82 19.94 41.88 20.23 41.88C20.37 41.88 20.53 41.87 20.61 41.83C20.65 41.82 20.67 41.8 20.67 41.76C20.69 41.69 20.72 41.51 20.72 41.49C20.72 41.47 20.72 41.44 20.68 41.44L20.71 41.43ZM28.8 41.77C28.8 41.77 28.75 41.77 28.72 41.76C28.68 41.75 28.65 41.73 28.61 41.68C28.56 41.62 28.23 41.1 28.15 40.98L28.49 40.52C28.55 40.43 28.59 40.38 28.63 40.37C28.66 40.37 28.68 40.36 28.7 40.36C28.72 40.36 28.75 40.35 28.75 40.32C28.75 40.29 28.72 40.28 28.69 40.28C28.61 40.28 28.52 40.28 28.49 40.28C28.46 40.28 28.35 40.28 28.27 40.28C28.24 40.28 28.21 40.28 28.21 40.32C28.21 40.35 28.24 40.36 28.25 40.36C28.26 40.36 28.29 40.36 28.31 40.36C28.33 40.36 28.33 40.37 28.33 40.38C28.33 40.39 28.33 40.42 28.31 40.44C28.28 40.49 28.11 40.73 28.04 40.84C27.96 40.71 27.88 40.58 27.79 40.42C27.78 40.4 27.77 40.37 27.77 40.37C27.77 40.37 27.77 40.37 27.79 40.36C27.8 40.36 27.83 40.36 27.84 40.36C27.86 40.36 27.89 40.36 27.89 40.32C27.89 40.29 27.86 40.28 27.83 40.28C27.75 40.28 27.62 40.28 27.59 40.28C27.49 40.28 27.32 40.28 27.27 40.28C27.24 40.28 27.21 40.28 27.21 40.31C27.21 40.33 27.23 40.35 27.25 40.35C27.27 40.35 27.3 40.35 27.33 40.36C27.4 40.38 27.44 40.42 27.49 40.5L27.85 41.07L27.45 41.61C27.38 41.71 27.35 41.73 27.29 41.75C27.26 41.75 27.23 41.75 27.22 41.75C27.2 41.75 27.18 41.77 27.17 41.79C27.17 41.81 27.19 41.83 27.22 41.83H27.26C27.26 41.83 27.4 41.83 27.44 41.83C27.49 41.83 27.63 41.83 27.64 41.83H27.68C27.68 41.83 27.74 41.83 27.74 41.79C27.74 41.76 27.72 41.75 27.7 41.75C27.68 41.75 27.67 41.75 27.65 41.75C27.64 41.75 27.63 41.75 27.63 41.73C27.63 41.72 27.63 41.69 27.66 41.66L27.95 41.21C28.04 41.36 28.15 41.54 28.27 41.73V41.74C28.25 41.74 28.23 41.76 28.23 41.78C28.23 41.82 28.27 41.82 28.32 41.82C28.49 41.82 28.66 41.82 28.71 41.82H28.77C28.77 41.82 28.82 41.82 28.83 41.78C28.83 41.76 28.81 41.74 28.79 41.74L28.8 41.77ZM30.58 41.77C30.58 41.77 30.53 41.77 30.5 41.76C30.46 41.75 30.43 41.73 30.39 41.68C30.34 41.62 30.01 41.1 29.93 40.98L30.27 40.52C30.33 40.43 30.37 40.38 30.41 40.37C30.44 40.37 30.46 40.36 30.48 40.36C30.51 40.36 30.53 40.35 30.53 40.32C30.53 40.29 30.5 40.28 30.48 40.28C30.4 40.28 30.31 40.28 30.27 40.28C30.23 40.28 30.13 40.28 30.05 40.28C30.02 40.28 29.99 40.28 29.99 40.32C29.99 40.35 30.02 40.36 30.03 40.36C30.04 40.36 30.07 40.36 30.09 40.36C30.11 40.36 30.11 40.37 30.11 40.38C30.11 40.39 30.11 40.42 30.09 40.44C30.06 40.49 29.89 40.73 29.82 40.84C29.74 40.71 29.66 40.58 29.57 40.42C29.56 40.4 29.55 40.37 29.55 40.37C29.55 40.37 29.55 40.37 29.57 40.36C29.59 40.36 29.61 40.36 29.62 40.36C29.64 40.36 29.67 40.36 29.67 40.32C29.67 40.29 29.64 40.28 29.61 40.28C29.53 40.28 29.4 40.28 29.37 40.28C29.27 40.28 29.1 40.28 29.05 40.28C29.02 40.28 29 40.28 28.99 40.31C28.99 40.33 29.01 40.35 29.03 40.35C29.05 40.35 29.08 40.35 29.11 40.36C29.18 40.38 29.22 40.42 29.27 40.5L29.63 41.07L29.23 41.61C29.16 41.71 29.13 41.73 29.07 41.75C29.04 41.75 29.01 41.75 29 41.75C28.98 41.75 28.95 41.77 28.95 41.79C28.95 41.81 28.97 41.83 29 41.83H29.04C29.04 41.83 29.18 41.83 29.22 41.83C29.27 41.83 29.41 41.83 29.42 41.83H29.46C29.46 41.83 29.52 41.83 29.52 41.79C29.52 41.76 29.5 41.75 29.48 41.75C29.46 41.75 29.45 41.75 29.44 41.75C29.43 41.75 29.42 41.75 29.42 41.73C29.42 41.72 29.42 41.69 29.45 41.66L29.74 41.21C29.83 41.36 29.94 41.54 30.06 41.73V41.74C30.04 41.74 30.02 41.76 30.02 41.78C30.02 41.82 30.06 41.82 30.11 41.82C30.28 41.82 30.45 41.82 30.5 41.82H30.56C30.56 41.82 30.62 41.82 30.62 41.78C30.62 41.76 30.6 41.74 30.58 41.74V41.77ZM32.36 41.77C32.36 41.77 32.31 41.77 32.28 41.76C32.24 41.75 32.21 41.73 32.17 41.68C32.12 41.62 31.79 41.1 31.71 40.98L32.05 40.52C32.11 40.43 32.15 40.38 32.19 40.37C32.22 40.37 32.24 40.36 32.26 40.36C32.28 40.36 32.31 40.35 32.31 40.32C32.31 40.29 32.28 40.28 32.25 40.28C32.17 40.28 32.08 40.28 32.05 40.28C32.02 40.28 31.91 40.28 31.83 40.28C31.8 40.28 31.77 40.28 31.77 40.32C31.77 40.35 31.8 40.36 31.81 40.36C31.83 40.36 31.85 40.36 31.87 40.36C31.89 40.36 31.89 40.37 31.89 40.38C31.89 40.39 31.89 40.42 31.87 40.44C31.84 40.49 31.67 40.73 31.6 40.84C31.52 40.71 31.44 40.58 31.35 40.42C31.34 40.4 31.33 40.37 31.33 40.37C31.33 40.37 31.33 40.37 31.35 40.36C31.37 40.36 31.39 40.36 31.4 40.36C31.42 40.36 31.45 40.36 31.45 40.32C31.45 40.29 31.42 40.28 31.39 40.28C31.31 40.28 31.18 40.28 31.15 40.28C31.05 40.28 30.88 40.28 30.83 40.28C30.8 40.28 30.77 40.28 30.77 40.31C30.77 40.33 30.79 40.35 30.81 40.35C30.83 40.35 30.86 40.35 30.89 40.36C30.96 40.38 31 40.42 31.05 40.5L31.41 41.07L31.01 41.61C30.94 41.71 30.91 41.73 30.85 41.75C30.82 41.75 30.79 41.75 30.78 41.75C30.76 41.75 30.73 41.77 30.73 41.79C30.73 41.81 30.75 41.83 30.78 41.83H30.82C30.82 41.83 30.96 41.83 31 41.83C31.05 41.83 31.19 41.83 31.2 41.83H31.24C31.24 41.83 31.3 41.83 31.3 41.79C31.3 41.76 31.28 41.75 31.26 41.75C31.24 41.75 31.23 41.75 31.21 41.75C31.19 41.75 31.19 41.75 31.19 41.73C31.19 41.73 31.19 41.69 31.22 41.66L31.51 41.21C31.6 41.36 31.71 41.54 31.83 41.73V41.74C31.81 41.74 31.79 41.76 31.79 41.78C31.79 41.82 31.83 41.81 31.88 41.82C32.05 41.82 32.22 41.82 32.27 41.82H32.33C32.33 41.82 32.39 41.82 32.39 41.78C32.39 41.76 32.37 41.74 32.35 41.74L32.36 41.77ZM33.45 41.77C33.45 41.77 33.37 41.77 33.35 41.77C33.29 41.76 33.29 41.74 33.28 41.69C33.28 41.61 33.28 41.44 33.28 41.25V40.89C33.28 40.58 33.28 40.53 33.28 40.46C33.28 40.39 33.29 40.38 33.34 40.37C33.36 40.37 33.38 40.37 33.4 40.37C33.42 40.37 33.45 40.36 33.45 40.33C33.45 40.3 33.42 40.3 33.39 40.3C33.31 40.3 33.17 40.3 33.12 40.3C33.06 40.3 32.92 40.3 32.84 40.3C32.81 40.3 32.78 40.3 32.77 40.33C32.77 40.36 32.8 40.37 32.82 40.37C32.85 40.37 32.87 40.37 32.89 40.37C32.93 40.38 32.94 40.4 32.95 40.46C32.95 40.52 32.95 40.58 32.95 40.89V41.25C32.95 41.44 32.95 41.61 32.95 41.69C32.95 41.75 32.94 41.76 32.9 41.77C32.88 41.77 32.86 41.77 32.83 41.77C32.8 41.77 32.78 41.79 32.78 41.81C32.78 41.84 32.81 41.85 32.84 41.85C32.92 41.85 33.07 41.85 33.11 41.85C33.17 41.85 33.31 41.85 33.45 41.85C33.47 41.85 33.51 41.85 33.51 41.81C33.51 41.79 33.49 41.77 33.46 41.77H33.45ZM34.72 41.77C34.72 41.77 34.64 41.77 34.62 41.77C34.56 41.76 34.56 41.74 34.55 41.69C34.55 41.61 34.55 41.44 34.55 41.25V40.89C34.55 40.58 34.55 40.53 34.55 40.46C34.55 40.39 34.56 40.38 34.61 40.37C34.63 40.37 34.65 40.37 34.67 40.37C34.69 40.37 34.72 40.36 34.72 40.33C34.72 40.3 34.69 40.3 34.66 40.3C34.58 40.3 34.44 40.3 34.39 40.3C34.33 40.3 34.19 40.3 34.11 40.3C34.08 40.3 34.05 40.3 34.04 40.33C34.04 40.36 34.07 40.37 34.09 40.37C34.11 40.37 34.14 40.37 34.16 40.37C34.2 40.38 34.21 40.4 34.22 40.46C34.22 40.52 34.22 40.58 34.22 40.89V41.25C34.22 41.44 34.22 41.61 34.22 41.69C34.22 41.75 34.21 41.76 34.17 41.77C34.15 41.77 34.13 41.77 34.1 41.77C34.07 41.77 34.05 41.79 34.05 41.81C34.05 41.84 34.08 41.85 34.11 41.85C34.19 41.85 34.34 41.85 34.38 41.85C34.44 41.85 34.58 41.85 34.72 41.85C34.75 41.85 34.78 41.85 34.78 41.81C34.78 41.79 34.76 41.77 34.73 41.77H34.72ZM36 41.77C36 41.77 35.92 41.77 35.9 41.77C35.84 41.76 35.84 41.74 35.83 41.69C35.83 41.61 35.83 41.44 35.83 41.25V40.89C35.83 40.58 35.83 40.53 35.83 40.46C35.83 40.39 35.84 40.38 35.89 40.37C35.91 40.37 35.93 40.37 35.95 40.37C35.97 40.37 36 40.36 36 40.33C36 40.3 35.97 40.3 35.94 40.3C35.86 40.3 35.72 40.3 35.67 40.3C35.61 40.3 35.47 40.3 35.39 40.3C35.36 40.3 35.33 40.3 35.32 40.33C35.32 40.36 35.35 40.37 35.37 40.37C35.39 40.37 35.42 40.37 35.44 40.37C35.48 40.38 35.49 40.4 35.5 40.46C35.5 40.52 35.5 40.58 35.5 40.89V41.25C35.5 41.44 35.5 41.61 35.5 41.69C35.5 41.75 35.48 41.76 35.45 41.77C35.43 41.77 35.41 41.77 35.38 41.77C35.35 41.77 35.33 41.79 35.33 41.81C35.33 41.84 35.36 41.85 35.39 41.85C35.47 41.85 35.62 41.85 35.66 41.85C35.72 41.85 35.86 41.85 36 41.85C36.02 41.85 36.05 41.85 36.06 41.81C36.06 41.79 36.04 41.77 36.01 41.77H36ZM23.41 31.97V30.78C23.41 30.56 23.23 30.38 23.01 30.38C22.79 30.38 22.61 30.56 22.61 30.78V31.97H23.42H23.41ZM25.58 31.97V30.78C25.58 30.56 25.4 30.38 25.18 30.38C24.96 30.38 24.78 30.56 24.78 30.78V31.97H25.59H25.58ZM24.09 8.08C23.86 8.08 23.67 8.27 23.67 8.5C23.67 8.73 23.86 8.92 24.09 8.92C24.32 8.92 24.51 8.73 24.51 8.5C24.51 8.27 24.32 8.08 24.09 8.08ZM23.88 19.85H24.31V18.94H23.88V19.85ZM19.84 42.94C19.61 42.94 19.42 43.13 19.42 43.36C19.42 43.59 19.61 43.78 19.84 43.78C20.07 43.78 20.26 43.59 20.26 43.36C20.26 43.13 20.07 42.94 19.84 42.94ZM19.58 19.87V18.53C19.58 18.22 19.42 18 19.19 17.89C18.96 17.99 18.8 18.21 18.8 18.53V19.87H19.58ZM19.58 15.55V14.68C19.58 14.36 19.42 14.15 19.19 14.04C18.96 14.14 18.8 14.36 18.8 14.68V15.55H19.58ZM19.4 24.54V23.41C19.4 23.29 19.31 23.2 19.19 23.2C19.07 23.2 18.98 23.29 18.98 23.41V24.54H19.4ZM19.4 27.93V26.8C19.4 26.68 19.31 26.59 19.19 26.59C19.07 26.59 18.98 26.68 18.98 26.8V27.93H19.4ZM19.53 31.72V30.72C19.53 30.53 19.38 30.38 19.19 30.38C19 30.38 18.85 30.53 18.85 30.72V31.72H19.53ZM19.19 3.41C18.96 3.41 18.77 3.6 18.77 3.83C18.77 4.06 18.96 4.25 19.19 4.25C19.42 4.25 19.61 4.06 19.61 3.83C19.61 3.6 19.42 3.41 19.19 3.41ZM29.38 19.87V18.53C29.38 18.22 29.22 18 28.99 17.89C28.76 17.99 28.6 18.21 28.6 18.53V19.87H29.38ZM29.38 15.55V14.68C29.38 14.36 29.22 14.15 28.99 14.04C28.76 14.14 28.6 14.36 28.6 14.68V15.55H29.38ZM29.19 24.54V23.41C29.19 23.29 29.1 23.2 28.98 23.2C28.86 23.2 28.77 23.29 28.77 23.41V24.54H29.19ZM29.19 27.93V26.8C29.19 26.68 29.1 26.59 28.98 26.59C28.86 26.59 28.77 26.68 28.77 26.8V27.93H29.19ZM29.32 31.72V30.72C29.32 30.53 29.17 30.38 28.98 30.38C28.79 30.38 28.64 30.53 28.64 30.72V31.72H29.32ZM28.99 3.41C28.76 3.41 28.57 3.6 28.57 3.83C28.57 4.06 28.76 4.25 28.99 4.25C29.22 4.25 29.41 4.06 29.41 3.83C29.41 3.6 29.22 3.41 28.99 3.41ZM60.11 21.36C56.27 21.36 55.41 19.27 55.41 16.94V8.99H57.75V16.79C57.75 18.32 58.25 19.4 60.27 19.4C62.07 19.4 62.83 18.64 62.83 16.57V8.98H65.15V16.42C65.15 19.75 63.31 21.34 60.1 21.34L60.11 21.36ZM73.16 21.16V15.43C73.16 14.49 72.91 13.93 72.06 13.93C70.89 13.93 69.97 15.26 69.97 16.83V21.15H67.66V12.19H69.84C69.84 12.6 69.8 13.31 69.71 13.78L69.73 13.8C70.27 12.74 71.32 12 72.78 12C74.8 12 75.45 13.3 75.45 14.87V21.16H73.16ZM79.1 11.05C78.31 11.05 77.68 10.42 77.68 9.64C77.68 8.86 78.31 8.25 79.1 8.25C79.89 8.25 80.54 8.86 80.54 9.64C80.54 10.42 79.89 11.05 79.1 11.05ZM77.95 21.16V12.2H80.26V21.16H77.95ZM87.21 21.16H84.87L81.55 12.2H84.07L85.49 16.24C85.71 16.85 85.92 17.57 86.08 18.22H86.12C86.26 17.61 86.44 16.92 86.66 16.31L88.1 12.2H90.55L87.2 21.16H87.21ZM98.8 17.05H93.25C93.23 18.73 94.06 19.54 95.72 19.54C96.6 19.54 97.56 19.34 98.33 18.98L98.55 20.76C97.6 21.14 96.46 21.34 95.34 21.34C92.49 21.34 90.91 19.92 90.91 16.76C90.91 14.02 92.42 12 95.11 12C97.8 12 98.88 13.78 98.88 16C98.88 16.31 98.86 16.67 98.81 17.05H98.8ZM95.03 13.7C94.07 13.7 93.41 14.4 93.28 15.48H96.58C96.62 14.36 96 13.7 95.03 13.7ZM105.59 14.28C103.93 13.94 103.1 15.02 103.1 17.51V21.17H100.79V12.21H102.97C102.97 12.66 102.92 13.38 102.81 14.01H102.85C103.28 12.87 104.15 11.88 105.7 12.01L105.59 14.28ZM108.74 21.34C108.09 21.34 107.44 21.27 106.87 21.18L106.92 19.29C107.48 19.43 108.16 19.56 108.85 19.56C109.73 19.56 110.31 19.2 110.31 18.6C110.31 17.01 106.69 17.92 106.69 14.87C106.69 13.3 107.97 12 110.49 12C111.01 12 111.59 12.07 112.13 12.16L112.06 13.98C111.56 13.84 110.96 13.75 110.4 13.75C109.5 13.75 109.07 14.11 109.07 14.67C109.07 16.13 112.75 15.48 112.75 18.38C112.75 20.15 111.2 21.34 108.75 21.34H108.74ZM115.86 11.05C115.07 11.05 114.44 10.42 114.44 9.64C114.44 8.86 115.07 8.25 115.86 8.25C116.65 8.25 117.3 8.86 117.3 9.64C117.3 10.42 116.65 11.05 115.86 11.05ZM114.71 21.16V12.2H117.02V21.16H114.71ZM122.85 21.34C120.87 21.34 120.24 20.62 120.24 18.53V13.99H118.71V12.21H120.24V9.45L122.55 8.84V12.21H124.73V13.99H122.55V17.92C122.55 19.07 122.82 19.4 123.61 19.4C123.99 19.4 124.4 19.35 124.73 19.26V21.12C124.15 21.26 123.49 21.35 122.86 21.35L122.85 21.34ZM131.73 21.16C131.73 20.64 131.75 20.12 131.82 19.65L131.8 19.63C131.37 20.64 130.27 21.34 128.93 21.34C127.31 21.34 126.37 20.42 126.37 18.98C126.37 16.84 128.5 15.7 131.54 15.7V15.21C131.54 14.27 131.09 13.79 129.79 13.79C128.98 13.79 127.9 14.06 127.14 14.49L126.94 12.56C127.84 12.24 128.99 12 130.15 12C133.03 12 133.84 13.17 133.84 15.12V18.85C133.84 19.57 133.86 20.42 133.89 21.16H131.71H131.73ZM128.56 10.73C127.87 10.73 127.32 10.17 127.32 9.49C127.32 8.81 127.88 8.25 128.56 8.25C129.24 8.25 129.8 8.79 129.8 9.49C129.8 10.19 129.24 10.73 128.56 10.73ZM131.55 17.2C129.12 17.2 128.58 17.9 128.58 18.62C128.58 19.2 128.98 19.58 129.64 19.58C130.77 19.58 131.55 18.5 131.55 17.42V17.2ZM132.2 10.73C131.52 10.73 130.96 10.17 130.96 9.49C130.96 8.81 131.52 8.25 132.2 8.25C132.88 8.25 133.44 8.79 133.44 9.49C133.44 10.19 132.88 10.73 132.2 10.73ZM139.55 21.34C137.57 21.34 136.94 20.62 136.94 18.53V13.99H135.41V12.21H136.94V9.45L139.25 8.84V12.21H141.43V13.99H139.25V17.92C139.25 19.07 139.52 19.4 140.31 19.4C140.69 19.4 141.1 19.35 141.43 19.26V21.12C140.85 21.26 140.19 21.35 139.56 21.35L139.55 21.34ZM54.96 40.2V38.4L59.34 31.26C59.59 30.85 59.84 30.49 60.13 30.11C59.7 30.13 59.12 30.15 57.91 30.15H55.1V28.04H62.96V29.91L58.33 37.23C58.15 37.52 57.99 37.79 57.77 38.08C58.08 38.04 58.9 38.04 60.4 38.04H63.03V40.2H54.96ZM70.48 40.2C70.48 39.79 70.5 39.08 70.59 38.61L70.57 38.59C70.03 39.65 69 40.39 67.52 40.39C65.5 40.39 64.85 39.09 64.85 37.52V31.23H67.14V36.96C67.14 37.9 67.39 38.46 68.26 38.46C69.43 38.46 70.33 37.13 70.33 35.56V31.23H72.64V40.19H70.48V40.2ZM66.83 29.77C66.15 29.77 65.59 29.21 65.59 28.53C65.59 27.85 66.15 27.29 66.83 27.29C67.51 27.29 68.07 27.83 68.07 28.53C68.07 29.23 67.51 29.77 66.83 29.77ZM70.47 29.77C69.78 29.77 69.23 29.21 69.23 28.53C69.23 27.85 69.79 27.29 70.47 27.29C71.15 27.29 71.71 27.83 71.71 28.53C71.71 29.23 71.15 29.77 70.47 29.77ZM79.93 33.32C78.27 32.98 77.44 34.06 77.44 36.55V40.21H75.13V31.25H77.31C77.31 31.7 77.26 32.42 77.15 33.05H77.19C77.62 31.92 78.49 30.92 80.04 31.05L79.93 33.32ZM82.85 30.09C82.06 30.09 81.43 29.46 81.43 28.68C81.43 27.9 82.06 27.29 82.85 27.29C83.64 27.29 84.29 27.9 84.29 28.68C84.29 29.46 83.64 30.09 82.85 30.09ZM81.7 40.2V31.24H84.01V40.2H81.7ZM89.73 40.36C87.24 40.36 85.69 39.06 85.69 36.02C85.69 33.23 87.15 31.08 90.32 31.08C90.93 31.08 91.58 31.17 92.16 31.33L91.93 33.33C91.44 33.15 90.89 33 90.31 33C88.85 33 88.11 34.08 88.11 35.78C88.11 37.31 88.7 38.36 90.24 38.36C90.85 38.36 91.52 38.23 92.01 37.98L92.19 39.94C91.58 40.17 90.69 40.35 89.74 40.35L89.73 40.36ZM99.48 40.2V34.47C99.48 33.53 99.23 32.97 98.38 32.97C97.21 32.97 96.29 34.3 96.29 35.87V40.2H93.98V27.04H96.29V30.88C96.29 31.42 96.25 32.18 96.13 32.7L96.17 32.72C96.69 31.71 97.72 31.04 99.11 31.04C101.13 31.04 101.78 32.34 101.78 33.91V40.2H99.49H99.48ZM105.33 31.72C103.87 31.72 103.52 30.93 103.52 30.01V27.04H104.58V29.95C104.58 30.49 104.75 30.83 105.4 30.83C106 30.83 106.23 30.58 106.23 29.89V27.04H107.28V29.83C107.28 31.12 106.55 31.72 105.33 31.72ZM108.16 31.63V30.8L109.64 28.33C109.71 28.21 109.8 28.09 109.88 27.98C109.76 27.98 109.6 27.99 109.16 27.99H108.21V27.04H111.18V27.9L109.62 30.4C109.57 30.49 109.51 30.56 109.44 30.66C109.53 30.65 109.79 30.65 110.33 30.65H111.2V31.63H108.15H108.16ZM114.92 31.63V29.72H113.24V31.63H112.18V27.04H113.24V28.8H114.92V27.04H115.98V31.63H114.92ZM0 24.09C0 10.79 10.79 0 24.09 0C37.4 0 48.18 10.79 48.18 24.09C48.18 37.39 37.39 48.18 24.09 48.18C10.79 48.18 0 37.4 0 24.09ZM7.48 7.48C3.22 11.73 0.6 17.6 0.6 24.09C0.6 30.58 3.23 36.45 7.48 40.7C11.73 44.95 17.6 47.58 24.09 47.58C30.58 47.58 36.45 44.95 40.7 40.7C44.95 36.45 47.58 30.58 47.58 24.09C47.58 17.6 44.95 11.73 40.7 7.48C36.45 3.22 30.58 0.59 24.09 0.59C17.6 0.59 11.73 3.22 7.48 7.47V7.48ZM24.46 39.23H24.65V38.89H24.19V39.64H24.46V39.23ZM24.09 1.57C11.66 1.57 1.57 11.65 1.57 24.08C1.57 36.51 11.65 46.6 24.09 46.6C36.53 46.6 46.61 36.52 46.61 24.08C46.61 11.64 36.53 1.56 24.09 1.56V1.57ZM21.6 43.19H20.58V43.53H21.6V46.06C16.49 45.49 11.9 43.17 8.45 39.72C7.95 39.22 7.48 38.71 7.04 38.17C7.13 37.62 7.61 37.2 8.18 37.2C8.82 37.2 9.34 37.72 9.34 38.36V39.47H10.81V38.37C10.81 37.73 11.33 37.21 11.97 37.21C12.61 37.21 13.13 37.73 13.13 38.37V39.48H14.6V38.37C14.6 37.73 15.12 37.21 15.76 37.21C16.4 37.21 16.92 37.73 16.92 38.37V39.48H18.39V38.37C18.39 37.73 18.91 37.21 19.55 37.21C20.19 37.21 20.71 37.73 20.71 38.37V39.48H21.63V43.2L21.6 43.19ZM25.79 46.14C25.23 46.18 24.66 46.21 24.09 46.21C23.52 46.21 22.95 46.19 22.39 46.15L21.97 43.54H22.45C22.33 43.25 22.12 42.75 22.04 42.55C21.91 42.22 22.01 42.01 22.22 41.92C22.43 41.84 22.67 41.95 22.74 42.23L22.95 43.02H23.26V43.53V43.63H22.53V43.97H23.6V43.53H24.89V43.02H25.2L25.41 42.23C25.49 41.95 25.73 41.84 25.94 41.92C26.16 42 26.26 42.22 26.13 42.55C26.09 42.64 26.04 42.79 25.98 42.94L25.69 43.64H24.91V43.98H25.91L26.09 43.54H26.2L25.78 46.15L25.79 46.14ZM23.39 38.68H24.79C24.84 38.81 24.98 39.13 25.06 39.32C25.12 39.45 25.19 39.59 25.1 39.74C24.99 39.91 24.86 39.89 24.76 39.88C24.76 39.88 24.75 39.88 24.74 39.88C24.64 40.15 24.39 40.34 24.09 40.34C23.79 40.34 23.54 40.15 23.44 39.88C23.44 39.88 23.43 39.88 23.42 39.88C23.32 39.88 23.18 39.91 23.08 39.74C22.99 39.6 23.06 39.45 23.12 39.32C23.2 39.13 23.34 38.81 23.39 38.68ZM23.18 37.23L23.63 37.87L24.09 37L24.55 37.87L25 37.23L24.82 38.34H23.36L23.18 37.23ZM23.72 40.38C23.83 40.67 24.1 40.88 24.43 40.88C24.79 40.88 25.08 40.63 25.17 40.3C25.39 40.31 25.61 40.38 25.83 40.56C26.04 40.74 26.12 41.04 26.15 41.19H22.03C22.06 41.04 22.14 40.73 22.35 40.56C22.8 40.18 23.26 40.31 23.71 40.38H23.72ZM25.41 41.53C25.25 42.12 24.72 42.55 24.09 42.55C23.46 42.55 22.92 42.12 22.77 41.53H25.41ZM39.73 39.72C36.28 43.17 31.7 45.48 26.59 46.06V43.53H27.52C29.25 43.53 30.5 43.39 30.5 43.39C30.5 43.39 29.21 43.19 27.52 43.19H26.59V39.47H27.71V38.36C27.71 37.72 28.23 37.2 28.87 37.2C29.51 37.2 30.03 37.72 30.03 38.36V39.47H31.5V38.37C31.5 37.73 32.02 37.21 32.66 37.21C33.3 37.21 33.82 37.73 33.82 38.37V39.48H35.29V38.37C35.29 37.73 35.81 37.21 36.45 37.21C37.09 37.21 37.61 37.73 37.61 38.37V39.48H39.08V38.37C39.08 37.73 39.6 37.21 40.24 37.21C40.75 37.21 41.18 37.54 41.33 37.99C40.84 38.6 40.32 39.18 39.77 39.73L39.73 39.72ZM41.54 37.67C41.28 37.13 40.73 36.75 40.09 36.75C39.21 36.75 38.49 37.47 38.49 38.35V38.87H37.91V38.35C37.91 37.47 37.19 36.75 36.31 36.75C35.43 36.75 34.71 37.47 34.71 38.35V38.87H34.13V38.35C34.13 37.47 33.41 36.75 32.53 36.75C31.65 36.75 30.93 37.47 30.93 38.35V38.87H30.35V38.35C30.35 37.47 29.63 36.75 28.75 36.75C27.87 36.75 27.15 37.47 27.15 38.35V38.87H26.55C26.37 37.67 25.34 36.75 24.09 36.75C22.84 36.75 21.81 37.67 21.63 38.87H21.02V38.35C21.02 37.47 20.3 36.75 19.42 36.75C18.54 36.75 17.82 37.47 17.82 38.35V38.87H17.24V38.35C17.24 37.47 16.52 36.75 15.64 36.75C14.76 36.75 14.04 37.47 14.04 38.35V38.87H13.46V38.35C13.46 37.47 12.74 36.75 11.86 36.75C10.98 36.75 10.26 37.47 10.26 38.35V38.87H9.68V38.35C9.68 37.47 8.96 36.75 8.08 36.75C7.45 36.75 6.9 37.12 6.64 37.65C6.25 37.15 5.88 36.63 5.54 36.1H42.67C42.32 36.64 41.95 37.16 41.56 37.67H41.54ZM43.03 35.51H5.16C5.05 35.33 4.94 35.14 4.84 34.96H43.36C43.25 35.15 43.15 35.33 43.04 35.51H43.03ZM20.28 7.09V7.28C20.28 7.28 20.26 7.37 20.25 7.43C20.22 7.51 20.14 7.65 20.03 7.81C19.99 7.88 19.92 7.98 19.84 8.14C19.74 7.99 19.65 7.88 19.59 7.82C19.52 7.75 19.43 7.66 19.36 7.57C19.2 7.38 19.19 7.27 19.19 7.27C19.19 7.27 19.19 7.38 19.03 7.57C18.96 7.66 18.87 7.75 18.8 7.82C18.74 7.88 18.65 7.99 18.55 8.15C18.47 7.99 18.4 7.88 18.36 7.81C18.25 7.64 18.17 7.51 18.14 7.43C18.11 7.35 18.1 7.26 18.1 7.25V7.11H20.27L20.28 7.09ZM18.11 6.75C18.13 6.47 18.2 5.95 18.47 5.59C18.68 5.31 18.88 5.15 19.03 5.05C19.1 5.01 19.15 4.98 19.19 4.96C19.23 4.98 19.28 5.01 19.35 5.05C19.5 5.15 19.7 5.31 19.91 5.59C20.18 5.95 20.26 6.48 20.27 6.75H18.11ZM20.35 7.99C20.41 8.07 20.47 8.2 20.54 8.35C20.64 8.58 20.66 8.81 20.66 8.98V11.47H20.02C20.02 10.92 20.02 9.71 20.02 8.98C20.02 8.81 20.05 8.57 20.14 8.35C20.22 8.17 20.28 8.08 20.34 7.99H20.35ZM19.68 8.99V11.47H18.71C18.71 10.78 18.71 8.99 18.71 8.99C18.71 8.83 18.73 8.6 18.85 8.37C18.97 8.13 19.2 7.98 19.2 7.98C19.2 7.98 19.42 8.12 19.54 8.37C19.66 8.61 19.67 8.82 19.68 8.99ZM18.24 8.34C18.33 8.56 18.35 8.8 18.35 8.97V11.46H17.72V8.96C17.72 8.79 17.74 8.56 17.84 8.33C17.91 8.18 17.98 8.06 18.03 7.97C18.1 8.08 18.17 8.18 18.24 8.33V8.34ZM21.16 11.88V12.69H17.22V11.88H21.16ZM21.16 13.02V16.16H20.21V14.75C20.21 14.28 20.04 13.88 19.75 13.61C19.6 13.46 19.41 13.35 19.21 13.28C19.2 13.28 19.2 13.28 19.2 13.28C19.2 13.28 19.2 13.28 19.18 13.28C18.98 13.35 18.79 13.46 18.64 13.61C18.35 13.88 18.18 14.28 18.18 14.75V16.16H17.22V13.02H21.16ZM19.87 14.75V16.16H18.52V14.75C18.52 14.2 18.79 13.82 19.19 13.65C19.59 13.83 19.86 14.21 19.87 14.75ZM21.16 16.5V20.49H20.28V18.5C20.28 18.03 20.1 17.62 19.81 17.34C19.65 17.19 19.47 17.08 19.26 17.01L19.19 16.99C19.19 16.99 19.13 17.01 19.12 17.01C18.91 17.08 18.72 17.19 18.56 17.35C18.27 17.63 18.09 18.04 18.09 18.51V20.5H17.21V16.51H21.15L21.16 16.5ZM19.95 18.51V20.5H18.44V18.51C18.44 18.13 18.58 17.81 18.8 17.6C18.91 17.49 19.04 17.42 19.19 17.36C19.34 17.42 19.47 17.5 19.58 17.6C19.8 17.81 19.94 18.13 19.94 18.51H19.95ZM21.16 20.84V25.59H17.22V20.84H21.16ZM21.16 25.93V29.03H17.22V25.93H21.16ZM21.16 29.38V34.63H17.22V29.38H21.16ZM24.63 16.54V17.96L24.09 17.42L23.55 17.96V16.55H24.63V16.54ZM23.57 16.13L23.97 14.43L24.13 11.59L24.23 14.42L24.63 16.12H23.58L23.57 16.13ZM24.09 17.99L26.6 20.5H21.58L24.09 17.99ZM26.6 20.84V22.76H21.56V20.84H26.6ZM26.6 23.35V25.59H25.03V25.03C25.03 24.51 24.61 24.09 24.09 24.09C23.57 24.09 23.15 24.51 23.15 25.03V25.59H21.56V23.35H26.6ZM23.16 25.93V27.93H25.03V25.93H26.6V29.03H21.56V25.93H23.15H23.16ZM26.6 29.38V34.63H21.56V29.38H26.6ZM30.07 7.09V7.28C30.07 7.28 30.05 7.37 30.04 7.43C30.01 7.51 29.93 7.65 29.82 7.81C29.78 7.88 29.71 7.98 29.63 8.14C29.53 7.99 29.44 7.88 29.38 7.82C29.31 7.75 29.22 7.66 29.15 7.57C28.99 7.38 28.98 7.27 28.98 7.27C28.98 7.27 28.98 7.38 28.82 7.57C28.75 7.66 28.66 7.75 28.59 7.82C28.53 7.88 28.44 7.99 28.34 8.15C28.26 7.99 28.19 7.88 28.15 7.81C28.04 7.64 27.97 7.51 27.93 7.43C27.9 7.35 27.89 7.25 27.89 7.25V7.11H30.06L30.07 7.09ZM27.9 6.75C27.92 6.47 27.99 5.95 28.26 5.59C28.47 5.31 28.67 5.15 28.82 5.05C28.89 5.01 28.94 4.98 28.98 4.96C29.02 4.98 29.07 5.01 29.14 5.05C29.29 5.15 29.49 5.31 29.7 5.59C29.97 5.95 30.04 6.48 30.06 6.75H27.9ZM30.15 7.99C30.21 8.07 30.27 8.2 30.34 8.35C30.44 8.58 30.46 8.81 30.46 8.98V11.47H29.82V8.98C29.82 8.81 29.85 8.57 29.94 8.35C30.02 8.17 30.08 8.08 30.14 7.99H30.15ZM29.47 8.99V11.47H28.5C28.5 10.78 28.5 8.99 28.5 8.99C28.5 8.83 28.52 8.6 28.64 8.37C28.76 8.13 28.99 7.98 28.99 7.98C28.99 7.98 29.21 8.12 29.33 8.37C29.45 8.61 29.46 8.82 29.47 8.99ZM28.04 8.34C28.13 8.56 28.15 8.8 28.15 8.97V11.46H27.52V8.96C27.52 8.79 27.54 8.56 27.64 8.33C27.71 8.18 27.78 8.06 27.83 7.97C27.9 8.08 27.97 8.18 28.04 8.33V8.34ZM30.96 11.88V12.69H27.02V11.88H30.96ZM30.96 13.02V16.16H30.01V14.75C30.01 14.28 29.84 13.88 29.55 13.61C29.4 13.46 29.21 13.35 29.01 13.28C29 13.28 29 13.28 29 13.28C29 13.28 29 13.28 28.98 13.28C28.78 13.35 28.59 13.46 28.44 13.61C28.15 13.88 27.98 14.28 27.98 14.75V16.16H27.02V13.02H30.96ZM29.66 14.75V16.16H28.31V14.75C28.31 14.2 28.58 13.82 28.98 13.65C29.38 13.83 29.65 14.21 29.66 14.75ZM30.96 16.5V20.49H30.08V18.5C30.08 18.03 29.9 17.62 29.61 17.34C29.45 17.19 29.27 17.08 29.06 17.01L28.99 16.99C28.99 16.99 28.93 17.01 28.92 17.01C28.71 17.08 28.52 17.19 28.36 17.35C28.07 17.63 27.89 18.04 27.89 18.51V20.5H27.01V16.51H30.95L30.96 16.5ZM29.74 18.51V20.5H28.23V18.51C28.23 18.13 28.37 17.81 28.59 17.6C28.7 17.49 28.83 17.42 28.98 17.36C29.13 17.42 29.26 17.5 29.37 17.6C29.59 17.81 29.73 18.13 29.73 18.51H29.74ZM30.96 20.84V25.59H27.02V20.84H30.96ZM30.96 25.93V29.03H27.02V25.93H30.96ZM30.96 29.38V34.63H27.02V29.38H30.96ZM31.56 34.62V11.47H31.06V8.92C31.06 8.6 31.01 8.4 30.87 8.08C30.83 8 30.78 7.91 30.73 7.82V6.9C30.73 6.9 30.73 6.18 30.43 5.63C30.1 5.04 29.47 4.71 29.17 4.58C29.1 4.55 29.05 4.53 29.04 4.53L28.99 4.51L28.93 4.53C28.93 4.53 28.4 4.7 27.93 5.34C27.5 5.93 27.48 6.69 27.48 6.9C27.48 6.93 27.48 6.95 27.48 6.96V7.81C27.42 7.89 27.34 8.02 27.26 8.21C27.13 8.53 27.12 8.83 27.11 9.01V11.47H26.61V19.92L25.24 18.55V16.14L24.78 14.58L24.1 9.24L23.6 14.36L23.13 16.14V18.37L21.77 19.73V11.47H21.27V8.92C21.27 8.6 21.22 8.4 21.08 8.08C21.04 8 20.99 7.91 20.94 7.82V6.9C20.94 6.9 20.94 6.18 20.64 5.63C20.31 5.04 19.68 4.71 19.38 4.58C19.31 4.55 19.26 4.53 19.25 4.53L19.2 4.51L19.14 4.53C19.14 4.53 18.61 4.7 18.14 5.34C17.71 5.93 17.69 6.69 17.69 6.9C17.69 6.93 17.69 6.95 17.69 6.96V7.81C17.63 7.89 17.55 8.02 17.47 8.21C17.34 8.53 17.33 8.83 17.32 9.01V11.47H16.82V34.62H4.65C2.95 31.49 1.98 27.9 1.98 24.08C1.98 17.97 4.45 12.44 8.46 8.44C12.46 4.44 17.98 1.97 24.09 1.97C30.2 1.97 35.73 4.45 39.73 8.45C43.73 12.45 46.21 17.98 46.21 24.09C46.21 27.91 45.24 31.5 43.54 34.63H31.57L31.56 34.62Z" fill="var(--fill-0, black)"/>
</g>
<defs>
<clipPath id="clip0_0_8">
<rect width="141.42" height="48.18" fill="white"/>
</clipPath>
</defs>
</svg>
